<svg xmlns="http://www.w3.org/2000/svg" width="82" height="24">
    <path style="fill:none" d="M0 0h82v24H0z"/>
    <path d="M19.3-5.691h5.434L14.729-28.1H9.614L-.36-5.691h5.307l1.982-4.8h10.389zM8.591-14.429l3.548-8.578 3.548 8.578zm18.477 8.738h5.179V-28.1h-5.179zm21.195.384a11.491 11.491 0 0 0 9.239-4l-3.325-3.073a7.128 7.128 0 0 1-5.627 2.656 6.869 6.869 0 0 1-7.161-7.17 6.869 6.869 0 0 1 7.161-7.17 7.2 7.2 0 0 1 5.626 2.625l3.324-3.072a11.546 11.546 0 0 0-9.207-3.969c-6.969 0-12.148 4.833-12.148 11.587S41.326-5.307 48.263-5.307zm22.953 0a11.491 11.491 0 0 0 9.239-4L77.13-12.38a7.128 7.128 0 0 1-5.63 2.656 6.869 6.869 0 0 1-7.161-7.17 6.869 6.869 0 0 1 7.161-7.17 7.2 7.2 0 0 1 5.626 2.625l3.325-3.073a11.546 11.546 0 0 0-9.207-3.969c-6.969 0-12.148 4.833-12.148 11.587s5.183 11.587 12.12 11.587z" transform="translate(.953 28.893)" style="fill:#fff"/>
</svg>
