<svg xmlns="http://www.w3.org/2000/svg" width="82" height="24">
    <path style="fill:none" d="M0 0h82v24H0z"/>
    <path d="M20.253 23.202h5.434L15.682.793h-5.115L.593 23.202H5.9l1.982-4.8h10.389zM9.544 14.464l3.548-8.578 3.548 8.578zm18.477 8.738H33.2V.793h-5.179zm21.195.384a11.491 11.491 0 0 0 9.239-4l-3.325-3.073a7.128 7.128 0 0 1-5.627 2.656 6.869 6.869 0 0 1-7.161-7.17 6.869 6.869 0 0 1 7.161-7.17 7.2 7.2 0 0 1 5.626 2.625l3.324-3.072A11.546 11.546 0 0 0 49.246.413C42.277.413 37.098 5.246 37.098 12s5.181 11.586 12.118 11.586zm22.953 0a11.491 11.491 0 0 0 9.239-4l-3.325-3.073a7.128 7.128 0 0 1-5.63 2.656 6.869 6.869 0 0 1-7.161-7.17 6.869 6.869 0 0 1 7.161-7.17 7.2 7.2 0 0 1 5.626 2.625l3.325-3.073A11.546 11.546 0 0 0 72.197.412c-6.969 0-12.148 4.833-12.148 11.587s5.183 11.587 12.12 11.587z"/>
</svg>
