<svg xmlns="http://www.w3.org/2000/svg" width="10" height="102">
    <path style="fill:none" d="M0 0h10v102H0z"/>
    <path d="M4.017.1C6.422.1 7.54-1.092 7.54-2.483c0-3.341-5.512-1.95-5.512-4.173 0-.793.663-1.443 2.21-1.443a4.7 4.7 0 0 1 2.5.741L7.163-8.4a5.354 5.354 0 0 0-2.925-.8C1.846-9.2.754-8.008.754-6.6c0 3.38 5.512 1.976 5.512 4.2 0 .793-.676 1.4-2.249 1.4a4.684 4.684 0 0 1-3-1.053L.533-1.04A5.4 5.4 0 0 0 4.017.1zm9.49 0a4.515 4.515 0 0 0 3.471-1.43l-.845-.819a3.384 3.384 0 0 1-2.561 1.092A3.437 3.437 0 0 1 10-4.55a3.437 3.437 0 0 1 3.575-3.5 3.372 3.372 0 0 1 2.561 1.079l.845-.819A4.5 4.5 0 0 0 13.52-9.2 4.6 4.6 0 0 0 8.7-4.55 4.6 4.6 0 0 0 13.507.1zM26.338 0 24.18-3.055a2.872 2.872 0 0 0 2-2.873c0-1.976-1.43-3.172-3.8-3.172h-3.543V0h1.3v-2.769h2.249c.2 0 .39-.013.572-.026L24.921 0zm-3.991-3.874h-2.21v-4.095h2.21c1.664 0 2.535.741 2.535 2.041s-.871 2.054-2.535 2.054zM32.4.1a4.611 4.611 0 0 0 4.819-4.65A4.611 4.611 0 0 0 32.4-9.2a4.625 4.625 0 0 0-4.853 4.65A4.625 4.625 0 0 0 32.4.1zm0-1.157a3.423 3.423 0 0 1-3.549-3.5 3.423 3.423 0 0 1 3.549-3.5 3.417 3.417 0 0 1 3.523 3.5A3.417 3.417 0 0 1 32.4-1.053zM39.208 0h6.227v-1.131h-4.927V-9.1h-1.3zm7.722 0h6.227v-1.131H48.23V-9.1h-1.3zm11.219 0h3.835C64.909 0 66.9-1.846 66.9-4.55S64.909-9.1 61.984-9.1h-3.835zm1.3-1.131v-6.838h2.457A3.354 3.354 0 0 1 65.6-4.55a3.354 3.354 0 0 1-3.692 3.419zM73 .1a4.611 4.611 0 0 0 4.818-4.65A4.611 4.611 0 0 0 73-9.2a4.625 4.625 0 0 0-4.854 4.65A4.625 4.625 0 0 0 73 .1zm0-1.157a3.423 3.423 0 0 1-3.549-3.5A3.423 3.423 0 0 1 73-8.047a3.417 3.417 0 0 1 3.523 3.5A3.417 3.417 0 0 1 73-1.053zM91.143-9.1l-2.509 7.436L86.125-9.1h-1.2l-2.557 7.4-2.457-7.4h-1.339L81.614 0H83l2.483-7.267L87.971 0h1.365l3.042-9.1zm9.347 0v6.786L95.03-9.1h-1.066V0h1.3v-6.786L100.724 0h1.066v-9.1z" transform="rotate(90 .306 .145)" style="fill:#fff"/>
</svg>
