<?xml version="1.0" encoding="utf-8"?>
<!-- Generator: Adobe Illustrator 24.1.1, SVG Export Plug-In . SVG Version: 6.00 Build 0)  -->
<svg version="1.1" id="Layer_1" xmlns="http://www.w3.org/2000/svg" xmlns:xlink="http://www.w3.org/1999/xlink" x="0px" y="0px"
	 viewBox="0 0 600 800" style="enable-background:new 0 0 600 800;" xml:space="preserve">
<style type="text/css">
	.st0{fill:url(#SVGID_1_);}
	.st1{fill:url(#SVGID_2_);}
	.st2{fill:url(#SVGID_3_);}
	.st3{fill:url(#SVGID_4_);}
	.st4{fill:#F4F7FA;}
	.st5{fill:url(#SVGID_5_);}
	.st6{fill:#D8DEE8;}
	.st7{fill:url(#SVGID_6_);}
	.st8{fill:url(#SVGID_7_);}
	.st9{fill:url(#SVGID_8_);}
	.st10{fill:url(#SVGID_9_);}
	.st11{fill:url(#SVGID_10_);}
	.st12{fill:url(#SVGID_11_);}
	.st13{fill:url(#SVGID_12_);}
	.st14{fill:url(#SVGID_13_);}
	.st15{fill:url(#SVGID_14_);}
	.st16{fill:url(#SVGID_15_);}
	.st17{fill:url(#SVGID_16_);}
	.st18{fill:url(#SVGID_17_);}
	.st19{fill:url(#SVGID_18_);}
	.st20{fill:url(#SVGID_19_);}
	.st21{fill:url(#SVGID_20_);}
	.st22{fill:url(#SVGID_21_);}
	.st23{fill:url(#SVGID_22_);}
	.st24{fill:url(#SVGID_23_);}
	.st25{fill:url(#SVGID_24_);}
	.st26{fill:url(#SVGID_25_);}
	.st27{fill:url(#SVGID_26_);}
	.st28{opacity:0.3;fill:url(#SVGID_27_);enable-background:new    ;}
	.st29{fill:#FFFFFF;}
</style>
<g>
	<g>
		
			<linearGradient id="SVGID_1_" gradientUnits="userSpaceOnUse" x1="1597.4847" y1="-237.1089" x2="1603.7434" y2="1227.1207" gradientTransform="matrix(-1 0 0 1 1941.73 -81)">
			<stop  offset="0" style="stop-color:#AA80F9"/>
			<stop  offset="0.9964" style="stop-color:#6165D7"/>
		</linearGradient>
		<path class="st0" d="M228.19,536.49c40.62,80.14,95.84,88.66,112.1,89.46v0.06c0,0-0.48,0.04,0.74,0.02
			c1.22,0.02,0.74-0.02,0.74-0.02v-0.06c14.79-0.67,53.24-6.59,89.67-53.75c7.68-9.95,15.32-21.74,22.39-35.71
			c47.18-93.1,12.88-141.04,12.88-141.04l-124.94-0.29v-0.02l-0.74,0.02l-0.74-0.02v0.02l-53.24,0.13l-71.91,0.17
			C215.16,395.45,181.02,443.39,228.19,536.49z"/>
		
			<linearGradient id="SVGID_2_" gradientUnits="userSpaceOnUse" x1="1600.3794" y1="363.1298" x2="1601.2502" y2="566.8221" gradientTransform="matrix(-1 0 0 1 1941.73 -81)">
			<stop  offset="0" style="stop-color:#444B8C"/>
			<stop  offset="0.9964" style="stop-color:#26264F"/>
		</linearGradient>
		<ellipse class="st1" cx="340.86" cy="397.38" rx="126.86" ry="16.08"/>
	</g>
	
		<linearGradient id="SVGID_3_" gradientUnits="userSpaceOnUse" x1="1341.73" y1="252.5969" x2="1474.0157" y2="252.5969" gradientTransform="matrix(-1 0 0 1 1941.73 -81)">
		<stop  offset="0" style="stop-color:#444B8C"/>
		<stop  offset="0.9964" style="stop-color:#26264F"/>
	</linearGradient>
	<ellipse class="st2" cx="533.86" cy="171.6" rx="66.14" ry="84.64"/>
	
		<linearGradient id="SVGID_4_" gradientUnits="userSpaceOnUse" x1="1360.2703" y1="271.6633" x2="1825.6484" y2="271.6633" gradientTransform="matrix(-1 0 0 1 1941.73 -81)">
		<stop  offset="0" style="stop-color:#AA80F9"/>
		<stop  offset="0.9964" style="stop-color:#6165D7"/>
	</linearGradient>
	<path class="st3" d="M116.08,190.66c0,105.31,104.19,190.66,232.69,190.66c19.74,0,38.89-2.02,57.2-5.81
		c100.85-20.88,175.49-95.73,175.49-184.85C581.46,85.38,477.27,0,348.77,0c-36.11,0-70.29,6.73-100.78,18.77
		C169.93,49.54,116.08,114.95,116.08,190.66z"/>
	<path class="st4" d="M504.16,277.68l-179.4,15.66c-39.67,3.45-73.87-27.57-75.26-69.74l-1.47-44.99
		c-0.63-19.36,14.18-35.5,32.85-35.99l255.75-6.59c14.86-0.38,26.75,13.11,26.75,30.09v39.5
		C563.38,242.69,537.25,274.8,504.16,277.68z"/>
	
		<linearGradient id="SVGID_5_" gradientUnits="userSpaceOnUse" x1="1822.7258" y1="290.6751" x2="2111.1802" y2="290.6751" gradientTransform="matrix(1 0 0 1 -1560.3822 -81)">
		<stop  offset="0" style="stop-color:#444B8C"/>
		<stop  offset="0.9964" style="stop-color:#26264F"/>
	</linearGradient>
	<path class="st5" d="M508.48,251.97l-191.97,14.14c-28.35,2.08-52.57-20.33-53.52-50.28l-0.63-19.87
		c-0.61-19.21,14.06-35.29,32.49-35.86l228.86-6.99c15-0.46,27.04,13.03,27.06,30.07l0.02,17.64
		C550.84,227.39,532.09,250.22,508.48,251.97z"/>
	<path class="st6" d="M395.91,234.75c1.81-2.97,2.9-6.25,2.84-9.72c-0.19-11.24-11.45-19.8-25.3-19.11
		c-13.99,0.72-25.25,10.61-25,22.08c0.08,3.54,1.35,6.73,3.35,9.53L395.91,234.75z"/>
	<path class="st6" d="M514.05,227.32c1.66-2.82,2.69-5.93,2.67-9.24c-0.04-10.69-10.12-18.88-22.62-18.25
		c-12.65,0.63-22.9,10.02-22.79,20.92c0.04,3.37,1.14,6.42,2.9,9.07L514.05,227.32z"/>
	
		<linearGradient id="SVGID_6_" gradientUnits="userSpaceOnUse" x1="1727.7494" y1="285.7841" x2="1860.0352" y2="285.7841" gradientTransform="matrix(-1 0 0 1 1941.73 -81)">
		<stop  offset="0" style="stop-color:#444B8C"/>
		<stop  offset="0.9964" style="stop-color:#26264F"/>
	</linearGradient>
	<ellipse class="st7" cx="147.84" cy="204.78" rx="66.14" ry="84.64"/>
</g>
<g>
	<g>
		<g>
			
				<linearGradient id="SVGID_7_" gradientUnits="userSpaceOnUse" x1="3084.9094" y1="-3180.5105" x2="3083.3948" y2="-3311.2949" gradientTransform="matrix(-0.048 0.9988 -0.9988 -0.048 -3084.7048 -2876.4119)">
				<stop  offset="0" style="stop-color:#FFC444"/>
				<stop  offset="0.9964" style="stop-color:#F36F56"/>
			</linearGradient>
			<path class="st8" d="M37.08,372.09c-5.81-0.27-10.63-5.53-10.73-11.72c-0.11-6.21,4.55-11.03,10.37-10.75
				c5.83,0.29,10.65,5.58,10.75,11.76C47.56,367.56,42.89,372.36,37.08,372.09z M36.79,354.43c-3.33-0.17-5.98,2.59-5.93,6.15
				c0.06,3.54,2.82,6.54,6.14,6.69c3.33,0.17,5.98-2.59,5.93-6.12C42.87,357.61,40.11,354.6,36.79,354.43z"/>
			
				<linearGradient id="SVGID_8_" gradientUnits="userSpaceOnUse" x1="3094.3911" y1="-3241.6836" x2="3092.8792" y2="-3372.2239" gradientTransform="matrix(-0.048 0.9988 -0.9988 -0.048 -3084.7048 -2876.4119)">
				<stop  offset="0" style="stop-color:#FFC444"/>
				<stop  offset="0.9964" style="stop-color:#F36F56"/>
			</linearGradient>
			<path class="st9" d="M87.82,384.1c-5.81-0.27-10.59-5.51-10.65-11.7c-0.06-6.19,4.63-10.99,10.44-10.71
				c5.83,0.29,10.61,5.56,10.65,11.72C98.32,379.6,93.63,384.38,87.82,384.1z M87.67,366.51c-3.33-0.17-6,2.59-5.96,6.12
				c0.04,3.54,2.76,6.52,6.08,6.67c3.33,0.17,6-2.57,5.96-6.1C93.71,369.67,91,366.68,87.67,366.51z"/>
			
				<linearGradient id="SVGID_9_" gradientUnits="userSpaceOnUse" x1="3057.6965" y1="-3255.1199" x2="3056.1768" y2="-3386.345" gradientTransform="matrix(-0.048 0.9988 -0.9988 -0.048 -3084.7048 -2876.4119)">
				<stop  offset="0" style="stop-color:#FFC444"/>
				<stop  offset="0.9964" style="stop-color:#F36F56"/>
			</linearGradient>
			<path class="st10" d="M137.8,349.49c-5.85-0.29-10.61-5.58-10.63-11.81c-0.02-6.25,4.74-11.11,10.59-10.84
				c5.87,0.29,10.63,5.6,10.63,11.85C148.38,344.92,143.63,349.78,137.8,349.49z M137.78,331.7c-3.35-0.17-6.04,2.61-6.04,6.19
				c0.02,3.56,2.74,6.59,6.06,6.76s6.04-2.61,6.04-6.17C143.84,334.9,141.12,331.87,137.78,331.7z"/>
			
				<linearGradient id="SVGID_10_" gradientUnits="userSpaceOnUse" x1="3124.0857" y1="-3327.6326" x2="3122.5815" y2="-3457.5337" gradientTransform="matrix(-0.048 0.9988 -0.9988 -0.048 -3084.7048 -2876.4119)">
				<stop  offset="0" style="stop-color:#FFC444"/>
				<stop  offset="0.9964" style="stop-color:#F36F56"/>
			</linearGradient>
			<path class="st11" d="M142.77,416.7c-5.77-0.27-10.48-5.47-10.5-11.57c-0.02-6.12,4.69-10.9,10.48-10.61
				c5.81,0.27,10.5,5.49,10.5,11.62C153.25,412.24,148.53,417,142.77,416.7z M142.74,399.28c-3.3-0.15-6,2.55-6,6.04
				c0,3.49,2.69,6.46,6,6.63c3.3,0.15,6-2.55,6-6.04C148.74,402.41,146.05,399.45,142.74,399.28z"/>
			<g>
				
					<linearGradient id="SVGID_11_" gradientUnits="userSpaceOnUse" x1="584.5521" y1="2655.3447" x2="582.9688" y2="2518.6292" gradientTransform="matrix(0.9988 0.048 -0.048 0.9988 -406.999 -2221.5227)">
					<stop  offset="0" style="stop-color:#FFC444"/>
					<stop  offset="0.9964" style="stop-color:#F36F56"/>
				</linearGradient>
				<polygon class="st12" points="65.39,449.72 60.9,449.51 60.42,411.29 37.08,366.85 40.99,364.7 64.9,410.26 				"/>
				
					<linearGradient id="SVGID_12_" gradientUnits="userSpaceOnUse" x1="622.9726" y1="2654.8606" x2="621.3926" y2="2518.4373" gradientTransform="matrix(0.9988 0.048 -0.048 0.9988 -406.999 -2221.5227)">
					<stop  offset="0" style="stop-color:#FFC444"/>
					<stop  offset="0.9964" style="stop-color:#F36F56"/>
				</linearGradient>
				<polygon class="st13" points="91.92,451 87.46,450.79 86.85,381.66 91.35,381.87 				"/>
				
					<linearGradient id="SVGID_13_" gradientUnits="userSpaceOnUse" x1="659.5448" y1="2654.468" x2="657.9558" y2="2517.2747" gradientTransform="matrix(0.9988 0.048 -0.048 0.9988 -406.999 -2221.5227)">
					<stop  offset="0" style="stop-color:#FFC444"/>
					<stop  offset="0.9964" style="stop-color:#F36F56"/>
				</linearGradient>
				<polygon class="st14" points="118.48,452.29 114,452.06 113.79,406.73 135.57,371.81 135.53,346.96 140.07,347.17 
					140.09,373.43 118.29,408.35 				"/>
				
					<linearGradient id="SVGID_14_" gradientUnits="userSpaceOnUse" x1="676.9297" y1="2654.1594" x2="675.3566" y2="2518.3506" gradientTransform="matrix(0.9988 0.048 -0.048 0.9988 -406.999 -2221.5227)">
					<stop  offset="0" style="stop-color:#FFC444"/>
					<stop  offset="0.9964" style="stop-color:#F36F56"/>
				</linearGradient>
				<polygon class="st15" points="145.02,453.55 140.54,453.34 140.49,413.46 145,413.67 				"/>
			</g>
		</g>
		<g>
			
				<linearGradient id="SVGID_15_" gradientUnits="userSpaceOnUse" x1="1057.9634" y1="-2965.2153" x2="1056.5215" y2="-3089.7222" gradientTransform="matrix(0 1 -1 0 -2779.5374 -589.5277)">
				<stop  offset="0" style="stop-color:#FFC444"/>
				<stop  offset="0.9964" style="stop-color:#F36F56"/>
			</linearGradient>
			<path class="st16" d="M264.17,467.86c0-5.53,4.52-10.23,10.1-10.48c5.56-0.23,10.06,4.06,10.06,9.58s-4.5,10.21-10.06,10.48
				C268.72,477.69,264.17,473.4,264.17,467.86z M280.02,467.15c0-3.16-2.57-5.6-5.75-5.47c-3.18,0.15-5.75,2.82-5.75,5.98
				s2.59,5.62,5.75,5.47C277.45,472.98,280.02,470.3,280.02,467.15z"/>
			
				<linearGradient id="SVGID_16_" gradientUnits="userSpaceOnUse" x1="1106.4611" y1="-2965.5447" x2="1105.0151" y2="-3090.4019" gradientTransform="matrix(0 1 -1 0 -2779.5374 -589.5277)">
				<stop  offset="0" style="stop-color:#FFC444"/>
				<stop  offset="0.9964" style="stop-color:#F36F56"/>
			</linearGradient>
			<path class="st17" d="M255.5,516.54c0-5.56,4.55-10.29,10.12-10.56c5.58-0.29,10.1,3.98,10.1,9.51c0,5.51-4.52,10.27-10.1,10.56
				S255.5,522.07,255.5,516.54z M271.39,515.7c0-3.16-2.59-5.6-5.77-5.43c-3.18,0.17-5.77,2.86-5.77,6.02c0,3.18,2.59,5.6,5.77,5.43
				C268.8,521.57,271.39,518.85,271.39,515.7z"/>
			
				<linearGradient id="SVGID_17_" gradientUnits="userSpaceOnUse" x1="1152.5063" y1="-2967.0747" x2="1151.0752" y2="-3090.6392" gradientTransform="matrix(0 1 -1 0 -2779.5374 -589.5277)">
				<stop  offset="0" style="stop-color:#FFC444"/>
				<stop  offset="0.9964" style="stop-color:#F36F56"/>
			</linearGradient>
			<path class="st18" d="M288.75,562.29c0-5.51,4.5-10.25,10.02-10.59c5.51-0.32,9.98,3.89,9.98,9.39c0,5.49-4.46,10.25-9.98,10.59
				C293.26,572.03,288.75,567.8,288.75,562.29z M304.49,561.34c0-3.14-2.55-5.56-5.7-5.37c-3.14,0.19-5.7,2.88-5.7,6.04
				c0,3.14,2.57,5.56,5.7,5.37C301.93,567.21,304.49,564.5,304.49,561.34z"/>
			
				<linearGradient id="SVGID_18_" gradientUnits="userSpaceOnUse" x1="1160.1553" y1="-2965.5977" x2="1158.6963" y2="-3091.5481" gradientTransform="matrix(0 1 -1 0 -2779.5374 -589.5277)">
				<stop  offset="0" style="stop-color:#FFC444"/>
				<stop  offset="0.9964" style="stop-color:#F36F56"/>
			</linearGradient>
			<path class="st19" d="M228.04,570.64c0-5.58,4.59-10.37,10.21-10.69c5.62-0.34,10.19,3.91,10.19,9.45
				c0,5.56-4.57,10.35-10.19,10.69C232.63,580.45,228.04,576.2,228.04,570.64z M244.05,569.65c0-3.18-2.61-5.6-5.81-5.41
				c-3.22,0.19-5.83,2.95-5.83,6.1c0,3.18,2.61,5.6,5.83,5.41C241.44,575.57,244.05,572.83,244.05,569.65z"/>
			<g>
				
					<linearGradient id="SVGID_19_" gradientUnits="userSpaceOnUse" x1="1072.6071" y1="-2964.2715" x2="1071.1461" y2="-3090.4255" gradientTransform="matrix(0 1 -1 0 -2779.5374 -589.5277)">
					<stop  offset="0" style="stop-color:#FFC444"/>
					<stop  offset="0.9964" style="stop-color:#F36F56"/>
				</linearGradient>
				<polygon class="st20" points="193.69,497.37 193.69,493.01 229.41,491.28 268.91,467.71 270.99,471.4 230.52,495.56 				"/>
				
					<linearGradient id="SVGID_20_" gradientUnits="userSpaceOnUse" x1="1109.3546" y1="-2964.6799" x2="1107.8904" y2="-3091.1121" gradientTransform="matrix(0 1 -1 0 -2779.5374 -589.5277)">
					<stop  offset="0" style="stop-color:#FFC444"/>
					<stop  offset="0.9964" style="stop-color:#F36F56"/>
				</linearGradient>
				<polygon class="st21" points="193.69,523.21 193.69,518.85 257.67,515.51 257.67,519.82 				"/>
				
					<linearGradient id="SVGID_21_" gradientUnits="userSpaceOnUse" x1="1144.311" y1="-2965.1299" x2="1142.8542" y2="-3090.9121" gradientTransform="matrix(0 1 -1 0 -2779.5374 -589.5277)">
					<stop  offset="0" style="stop-color:#FFC444"/>
					<stop  offset="0.9964" style="stop-color:#F36F56"/>
				</linearGradient>
				<polygon class="st22" points="193.69,549.05 193.69,544.7 235.97,542.32 268.7,561.34 290.92,560.02 290.92,564.31 
					267.41,565.72 234.67,546.72 				"/>
				
					<linearGradient id="SVGID_22_" gradientUnits="userSpaceOnUse" x1="1161.4257" y1="-2965.2544" x2="1159.9552" y2="-3092.23" gradientTransform="matrix(0 1 -1 0 -2779.5374 -589.5277)">
					<stop  offset="0" style="stop-color:#FFC444"/>
					<stop  offset="0.9964" style="stop-color:#F36F56"/>
				</linearGradient>
				<polygon class="st23" points="193.69,574.89 193.69,570.54 230.94,568.29 230.94,572.62 				"/>
			</g>
		</g>
	</g>
	<g>
		
			<linearGradient id="SVGID_23_" gradientUnits="userSpaceOnUse" x1="114.7259" y1="636.2693" x2="65.5378" y2="574.4037" gradientTransform="matrix(1 0 0 1 0 -81)">
			<stop  offset="0" style="stop-color:#311944"/>
			<stop  offset="1" style="stop-color:#893976"/>
		</linearGradient>
		<path class="st24" d="M167.18,625.11L31.9,634.49C14.33,635.71,0,623.02,0,606.12V473.1c0-16.9,14.33-31.17,31.9-31.86
			l135.27-5.41c16.77-0.67,30.33,12.08,30.33,28.47v129.04C197.5,609.74,183.95,623.95,167.18,625.11z"/>
		
			<linearGradient id="SVGID_24_" gradientUnits="userSpaceOnUse" x1="223.8557" y1="416.8477" x2="-18.2093" y2="822.3072" gradientTransform="matrix(1 0 0 1 0 -81)">
			<stop  offset="0" style="stop-color:#FF9085"/>
			<stop  offset="1" style="stop-color:#FB6FBB"/>
		</linearGradient>
		<path class="st25" d="M171.62,629.82l-135.27,9.39c-17.57,1.22-31.9-11.49-31.9-28.37V477.82c0-16.9,14.33-31.17,31.9-31.86
			l135.27-5.41c16.77-0.67,30.33,12.08,30.33,28.47v129.04C201.94,614.44,188.41,628.66,171.62,629.82z"/>
	</g>
	<g>
		
			<linearGradient id="SVGID_25_" gradientUnits="userSpaceOnUse" x1="170.0772" y1="719.533" x2="122.045" y2="648.7756" gradientTransform="matrix(1 0 0 1 0 -81)">
			<stop  offset="0" style="stop-color:#311944"/>
			<stop  offset="1" style="stop-color:#893976"/>
		</linearGradient>
		<path class="st26" d="M146.26,596.32l-90.15,5.83c-11.03,0.72-19.99-7.37-19.99-18.06v-88.77c0-10.69,8.96-19.76,19.99-20.27
			l90.15-4.1c10.69-0.48,19.34,7.62,19.34,18.1v87.04C165.6,586.57,156.95,595.64,146.26,596.32z"/>
		
			<linearGradient id="SVGID_26_" gradientUnits="userSpaceOnUse" x1="129.4173" y1="565.0477" x2="3.4068" y2="835.5094" gradientTransform="matrix(1 0 0 1 0 -81)">
			<stop  offset="0" style="stop-color:#FFC444"/>
			<stop  offset="0.9964" style="stop-color:#F36F56"/>
		</linearGradient>
		<path class="st27" d="M148.83,597.81l-88.87,5.7c-10.86,0.69-19.7-7.22-19.7-17.7V498.9c0-10.46,8.84-19.36,19.7-19.84l88.87-4.02
			c10.54-0.46,19.07,7.47,19.07,17.72v85.23C167.87,588.26,159.35,597.12,148.83,597.81z"/>
		
			<linearGradient id="SVGID_27_" gradientUnits="userSpaceOnUse" x1="108.7273" y1="607.4742" x2="25.1814" y2="786.7925" gradientTransform="matrix(1 0 0 1 0 -81)">
			<stop  offset="0" style="stop-color:#FFC444"/>
			<stop  offset="0.9964" style="stop-color:#F36F56"/>
		</linearGradient>
		<path class="st28" d="M112.5,573.23c-16.52-20.54,0.13-35.99-17.49-59.39c-13.89-18.5-33.54-21.28-49.27-28.3
			c-3.39,3.56-5.49,8.27-5.49,13.36v86.91c0,10.46,8.84,18.39,19.7,17.7l88.87-5.7c4.71-0.32,9.03-2.25,12.33-5.22
			C143.4,590.4,125.15,588.93,112.5,573.23z"/>
	</g>
	<g>
		<path class="st29" d="M73.49,561.43l-4.38,15.45c-0.9,3.18-3.83,5.49-7.2,5.7l-3.64,0.21c-5.03,0.32-8.63-4.15-7.18-8.88
			l20.77-66.52c0.95-3.07,3.85-5.28,7.13-5.43l13.47-0.65c3.24-0.15,6.1,1.75,7.07,4.69l20.77,63.79c1.47,4.5-2.06,9.36-7.03,9.68
			l-4.4,0.25c-3.26,0.19-6.12-1.7-7.07-4.65l-4.76-14.98L73.49,561.43z M94.38,546.78l-5.11-16.56c-1.47-4.63-2.93-10.46-4.15-15.11
			l-0.23,0.02c-1.22,4.78-2.44,10.86-3.79,15.53l-4.9,17.15L94.38,546.78z"/>
		<path class="st29" d="M152.45,505.47v64.48c0,3.91-3.26,7.3-7.28,7.53l-3.77,0.23c-4.04,0.23-7.3-2.74-7.3-6.67v-64.67
			c0-3.94,3.28-7.28,7.3-7.47l3.77-0.19C149.18,498.52,152.45,501.55,152.45,505.47z"/>
	</g>
</g>
</svg>
