<?xml version="1.0" encoding="utf-8"?>
<!-- Generator: Adobe Illustrator 24.1.1, SVG Export Plug-In . SVG Version: 6.00 Build 0)  -->
<svg version="1.1" id="Layer_1" xmlns="http://www.w3.org/2000/svg" xmlns:xlink="http://www.w3.org/1999/xlink" x="0px" y="0px"
	 viewBox="0 0 600 800" style="enable-background:new 0 0 600 800;" xml:space="preserve">
<style type="text/css">
	.st0{fill:#FFC2B0;}
	.st1{fill:#483AC7;}
	.st2{fill:#3D62C4;}
	.st3{fill:#6359C2;}
	.st4{fill:#40379C;}
	.st5{fill:#6198D9;}
	.st6{fill:#CFE4FF;}
	.st7{fill:#83A7D1;}
	.st8{fill:#FFFFFF;}
	.st9{fill:#E9F5FF;}
	.st10{fill:#A8C4E5;}
	.st11{fill:#35519C;}
	.st12{fill:#283D75;}
	.st13{fill:#F0F8FF;}
	.st14{fill:#B3C8E6;}
	.st15{fill:#915151;}
	.st16{fill:#9E5858;}
	.st17{fill:#21275E;}
	.st18{fill:#D18B77;}
	.st19{fill:#8E82F0;}
	.st20{fill:#FDFDFD;}
	.st21{fill:#9C91FF;}
	.st22{fill:none;stroke:#FDFDFD;stroke-width:3.1137;stroke-linecap:round;stroke-linejoin:round;stroke-miterlimit:10;}
	.st23{opacity:0.19;fill:#88BDEB;enable-background:new    ;}
	.st24{fill:#C7E1F8;}
	.st25{fill:#9AD0FC;}
	.st26{fill:#012954;}
	.st27{fill:#1A93FF;}
</style>
<g>
	<g>
		<g>
			<g>
				<path class="st0" d="M166.95,301.71c10.64-7.99,21.8-15.92,34.11-21.11c-1.54,0.66-3.08,1.3-4.64,1.96
					c3.56-1.48,7.24-2.72,11.07-3.28c-1.72,0.22-3.44,0.46-5.16,0.69c1.9-0.25,3.82-0.33,5.73-0.09c-1.72-0.22-3.44-0.46-5.16-0.69
					c1.3,0.18,2.56,0.49,3.77,0.99c-1.54-0.66-3.08-1.3-4.64-1.96c1.02,0.43,1.96,0.99,2.83,1.65c-1.3-1.02-2.62-2.02-3.92-3.04
					c0.91,0.72,1.74,1.54,2.45,2.45c-1.02-1.3-2.02-2.62-3.04-3.92c1.05,1.36,1.87,2.87,2.54,4.44c-0.66-1.54-1.3-3.08-1.96-4.64
					c1.26,3.04,1.93,6.25,2.38,9.5c-0.22-1.72-0.46-3.44-0.69-5.16c1.32,9.92,0.6,20.09-0.22,30.03
					c-0.94,11.43-2.33,22.83-3.28,34.26c-0.51,6.15-0.9,12.31-0.93,18.48c-0.03,4.95,2.18,10.22,5.69,13.72
					c3.37,3.37,8.89,5.89,13.72,5.69c5.01-0.22,10.22-1.87,13.72-5.69s5.64-8.45,5.69-13.72c0.07-11.82,1.35-23.59,2.54-35.32
					c1.18-11.58,2.5-23.22,2.57-34.88c0.04-6.43-0.55-12.75-1.57-19.11c-0.85-5.3-2.69-10.65-5.39-15.29
					c-3.08-5.3-7.88-10.38-13.53-12.97c-5.18-2.38-8.63-3.26-14.41-3.73c-3.62-0.28-7.45,0.42-10.95,1.02
					c-7.12,1.21-14.02,4.44-20.41,7.69c-7.68,3.89-14.89,8.65-21.89,13.65c-2.23,1.6-4.44,3.22-6.64,4.88
					c-2.26,1.21-4.07,2.89-5.45,5c-1.72,1.87-2.87,4.07-3.47,6.6c-1.27,4.64-0.7,10.83,1.96,14.95c2.66,4.14,6.64,7.78,11.6,8.92
					C156.76,304.75,162.88,304.76,166.95,301.71L166.95,301.71z"/>
			</g>
		</g>
		<g>
			<g>
				<g>
					<path class="st1" d="M212.49,378.26l4.64,14.21c1.59,2.39,6.87,6.43,9.47,5.24c10.82-4.92,39.83-15.38,34.92-28.16
						c-6.18-16.07-47.16,2.87-47.16,2.87L212.49,378.26z"/>
				</g>
			</g>
			<path class="st0" d="M223.07,364.04c0,0,16.32-2.2,23.88,3.31c2.96,2.15,0.22,5.51-5.15,8.03c-10.56,4.98-22.76,3.55-28.59-4.56
				l-3.76-2.26L223.07,364.04z"/>
			<g>
				<g>
					<path class="st1" d="M198.53,366.66l3.93,33.57c0.12,1.08,0.7,2.06,1.59,2.71l0,0c2.5,1.83,6.03,0.13,6.19-2.95l1.48-27.96
						c0.06-1.08-0.34-2.14-1.09-2.92l-5.43-5.61C202.61,360.81,198.1,362.95,198.53,366.66z"/>
				</g>
			</g>
			<g>
				<g>
					<path class="st1" d="M202.41,358.4c0,0-9.81,7.11-0.97,27.99c0.12,0.28,0.18,1.11,0.37,0.85c8.66-11.51,15.32,0,15.32,0
						l24.39-10.35c0,0-16.02,4.08-29.03-9.37C209.03,363.95,202.41,358.4,202.41,358.4z"/>
				</g>
			</g>
		</g>
		<g>
			<g>
				<path class="st1" d="M246.35,397.62l4.64,14.21c1.59,2.39,6.87,6.43,9.47,5.24c10.82-4.92,39.83-15.38,34.92-28.16
					c-6.18-16.07-47.16,2.87-47.16,2.87L246.35,397.62z"/>
			</g>
		</g>
		<path class="st0" d="M256.93,383.39c0,0,16.32-2.2,23.88,3.31c2.96,2.15,0.22,5.51-5.15,8.03c-10.56,4.98-22.76,3.55-28.59-4.56
			l-3.76-2.26L256.93,383.39z"/>
		<g>
			<g>
				<path class="st0" d="M168.37,309.42c12.82-0.9,25.6-2.92,38.11-5.87c8.72-2.05,17.3-4.62,25.96-6.88
					c3.58-0.93,7.17-1.81,10.82-2.32c-1.72,0.22-3.44,0.46-5.16,0.69c2.02-0.25,4.07-0.4,6.1-0.16c-1.72-0.22-3.44-0.46-5.16-0.69
					c0.93,0.13,1.83,0.34,2.69,0.69c-1.54-0.66-3.08-1.3-4.64-1.96c0.6,0.25,1.17,0.58,1.68,0.97c-1.3-1.02-2.62-2.02-3.92-3.04
					c0.46,0.37,0.85,0.78,1.23,1.24c-1.02-1.3-2.02-2.62-3.04-3.92c0.42,0.57,0.75,1.18,1.02,1.83c-0.66-1.54-1.3-3.08-1.96-4.64
					c0.4,1,0.64,2.05,0.79,3.13c-0.22-1.72-0.46-3.44-0.69-5.16c0.75,5.78,0.79,11.7,0.82,17.52c0.04,6.69-0.13,13.38-0.39,20.06
					c-0.55,14.14-1.48,28.25-2.03,42.39c-0.28,7.41-0.46,14.8-0.34,22.2c0.07,5.03,2.11,10.14,5.69,13.72
					c3.37,3.37,8.89,5.89,13.72,5.69c5.01-0.22,10.22-1.87,13.72-5.69c3.46-3.76,5.76-8.48,5.69-13.72
					c-0.49-30.03,3.49-59.97,2.68-90c-0.09-3.28-0.24-6.55-0.51-9.81c-0.28-3.44-0.46-7.03-1.6-10.32
					c-3.02-8.81-9.16-15.19-18.07-18.09c-2.87-0.94-6.04-1.24-9.05-1.32c-3.32-0.09-6.82,0.57-10.04,1.05
					c-4.53,0.67-8.99,1.87-13.42,3.07c-14.59,3.96-29.1,8-44.12,10.05c1.72-0.22,3.44-0.46,5.16-0.69
					c-3.91,0.52-7.81,0.91-11.75,1.2c-5.18,0.36-9.95,1.92-13.72,5.69c-3.37,3.37-5.89,8.89-5.69,13.72
					c0.22,5.01,1.87,10.22,5.69,13.72C158.3,307.08,163.27,309.78,168.37,309.42L168.37,309.42z"/>
			</g>
		</g>
		<g>
			<g>
				<path class="st1" d="M232.39,386.01l3.93,33.57c0.12,1.08,0.7,2.06,1.59,2.71l0,0c2.5,1.83,6.03,0.13,6.19-2.95l1.48-27.96
					c0.06-1.08-0.34-2.14-1.09-2.92l-5.43-5.61C236.47,380.16,231.96,382.31,232.39,386.01z"/>
			</g>
		</g>
		<g>
			<g>
				<path class="st1" d="M236.26,377.76c0,0-9.81,7.11-0.97,27.99c0.12,0.28,0.18,1.11,0.37,0.85c8.66-11.51,15.32,0,15.32,0
					l24.39-10.35c0,0-16.02,4.08-29.03-9.37C242.89,383.31,236.26,377.76,236.26,377.76z"/>
			</g>
		</g>
	</g>
	<path class="st2" d="M154.59,359.36l-110.4-63.74c-10.23-5.91-6.09-18.87,9.2-28.79l39.68-25.76c15.29-9.93,36.18-13.23,46.41-7.32
		l110.4,63.74c10.23,5.91,6.09,18.87-9.2,28.79L201,352.04C185.69,361.98,164.82,365.27,154.59,359.36z"/>
	<g>
		<path class="st1" d="M173.81,329.24l74.11-32.69c0,0-18.97-61.57-59.74-47.67c-46.02,15.68-76.86,30.18-76.86,30.18l0.4,18.67
			C106.68,357.64,150.52,343.02,173.81,329.24z"/>
	</g>
	<g>
		<g>
			<path class="st3" d="M584.08,385.95l0.96-0.12c2.86-0.36,4.86-2.98,4.5-5.84l-20.47-159.22c-0.36-2.86-2.98-4.86-5.82-4.5
				l-0.96,0.12c-2.86,0.36-4.86,2.98-4.5,5.84l20.47,159.22C578.62,384.3,581.24,386.32,584.08,385.95z"/>
		</g>
	</g>
	<g>
		<g>
			<path class="st3" d="M365.22,514.47L365.22,514.47c-3.1-0.27-5.4-2.99-5.13-6.09l22.13-256.88c0.27-3.1,2.99-5.4,6.09-5.13l0,0
				c3.1,0.27,5.4,2.99,5.13,6.09l-22.13,256.88C371.05,512.43,368.32,514.72,365.22,514.47z"/>
		</g>
	</g>
	<g>
		<g>
			<path class="st4" d="M19.41,306.38l-1.56-0.13c-2.66-0.22-4.64-2.57-4.41-5.25L29.7,112.12c0.22-2.66,2.57-4.64,5.25-4.41
				l1.56,0.13c2.66,0.22,4.64,2.57,4.41,5.25L24.66,301.97C24.42,304.63,22.07,306.6,19.41,306.38z"/>
		</g>
	</g>
	<g>
		<g>
			<polygon class="st4" points="383.2,371.39 372.48,364.06 375.54,333.19 386.96,334.99 			"/>
		</g>
	</g>
	<g>
		<g>
			<polygon class="st4" points="565.83,284.51 576.15,276.64 571.51,245.96 560.2,248.33 			"/>
		</g>
	</g>
	<g>
		<rect x="16.92" y="109.02" class="st5" width="29.86" height="17.34"/>
		<rect x="559.93" y="219.93" class="st5" width="29.86" height="17.34"/>
		<path class="st5" d="M389.59,345.21L20.74,132.24c-5.78-3.34-5.06-9.17,1.62-13.03l172.12-99.38c6.67-3.86,16.77-4.28,22.56-0.93
			l368.87,212.97c5.78,3.34,5.06,9.17-1.62,13.03l-172.12,99.38C405.48,348.12,395.38,348.54,389.59,345.21z"/>
		<path class="st6" d="M389.59,328.57L20.74,115.6c-5.78-3.34-5.06-9.17,1.62-13.03L194.48,3.19c6.67-3.86,16.77-4.28,22.56-0.94
			l368.87,212.97c5.78,3.34,5.06,9.17-1.62,13.03l-172.12,99.38C405.48,331.49,395.38,331.9,389.59,328.57z"/>
	</g>
	<path class="st7" d="M400.99,165.84l-152.77-88.2c-0.87-0.51-1.96-0.49-2.83,0.01l-46.38,27.38c-1.84,1.09-1.83,3.77,0.03,4.83
		l152.27,87.9c0.87,0.49,1.93,0.49,2.8,0l46.89-27.08C402.85,169.61,402.85,166.92,400.99,165.84z"/>
	<g>
		<path class="st8" d="M351.71,191.83l-152.25-87.9c-1.86-1.08-1.87-3.74-0.03-4.83l46.38-27.38c0.87-0.51,1.95-0.52,2.83-0.01
			l152.77,88.2c1.87,1.08,1.87,3.77,0,4.85l-46.89,27.08C353.64,192.34,352.58,192.34,351.71,191.83z"/>
		<path class="st9" d="M253.35,85.41c-0.24,0.13-0.75,0.09-1.12-0.13l-10.28-5.92c-0.37-0.21-0.48-0.51-0.22-0.64l6.81-3.93
			c0.24-0.15,0.75-0.09,1.12,0.13l10.28,5.92c0.37,0.21,0.48,0.51,0.22,0.64L253.35,85.41z"/>
		<path class="st9" d="M265.27,103.09c-0.25,0.15-0.75,0.09-1.12-0.13l-10.26-5.92c-0.37-0.21-0.46-0.49-0.22-0.64l6.81-3.93
			c0.24-0.13,0.73-0.09,1.11,0.13l10.26,5.92c0.37,0.21,0.48,0.51,0.22,0.64L265.27,103.09z"/>
		<path class="st9" d="M259.25,110.46c-0.24,0.15-0.75,0.07-1.11-0.13l-10.28-5.92c-0.36-0.21-0.48-0.49-0.22-0.64l6.81-3.93
			c0.24-0.13,0.75-0.07,1.11,0.13l10.28,5.92c0.37,0.21,0.46,0.51,0.22,0.64L259.25,110.46z"/>
		<path class="st9" d="M242.95,111.86c-0.24,0.13-0.75,0.09-1.11-0.13l-10.28-5.92c-0.36-0.21-0.46-0.51-0.22-0.64l6.81-3.93
			c0.24-0.13,0.75-0.09,1.12,0.13l10.28,5.92c0.37,0.21,0.46,0.51,0.22,0.64L242.95,111.86z"/>
		<path class="st9" d="M232.39,117.97c-0.24,0.13-0.84,0.03-1.33-0.25l-13.45-7.77c-0.48-0.28-0.67-0.63-0.43-0.76l7.99-4.62
			c0.24-0.13,0.84-0.03,1.32,0.25l13.45,7.77c0.49,0.28,0.67,0.63,0.43,0.76L232.39,117.97z"/>
		<path class="st9" d="M320.8,169.06c-0.21,0.12-0.67,0.04-1.05-0.18l-10.26-5.92c-0.37-0.21-0.51-0.49-0.31-0.6l2.95-1.71
			c0.21-0.12,0.67-0.04,1.05,0.18l10.26,5.92c0.37,0.21,0.51,0.48,0.3,0.6L320.8,169.06z"/>
		<path class="st9" d="M334.53,177.18c-0.21,0.12-0.67,0.04-1.05-0.18l-10.26-5.92c-0.37-0.21-0.51-0.49-0.31-0.6l2.95-1.71
			c0.21-0.12,0.67-0.04,1.05,0.18l10.26,5.92c0.37,0.21,0.51,0.48,0.3,0.6L334.53,177.18z"/>
		<path class="st9" d="M349.08,185.38c-0.19,0.12-0.66,0.03-1.03-0.18l-10.26-5.92c-0.37-0.21-0.52-0.48-0.31-0.6l2.84-1.65
			c0.19-0.12,0.66-0.03,1.03,0.18l10.26,5.92c0.37,0.21,0.51,0.48,0.31,0.6L349.08,185.38z"/>
		<path class="st9" d="M340.13,174.06c-0.19,0.12-0.66,0.03-1.03-0.18l-10.26-5.92c-0.37-0.21-0.52-0.48-0.31-0.6l2.84-1.65
			c0.19-0.12,0.66-0.03,1.03,0.18l10.26,5.92c0.37,0.21,0.51,0.48,0.31,0.6L340.13,174.06z"/>
		<path class="st9" d="M303.05,158.74c-0.24,0.13-0.75,0.07-1.12-0.13l-66.85-38.57c-0.36-0.21-0.48-0.51-0.22-0.64l7.99-4.62
			c0.24-0.13,0.75-0.07,1.12,0.13l66.85,38.57c0.37,0.21,0.48,0.51,0.24,0.64L303.05,158.74z"/>
		<path class="st9" d="M296.2,152.89c-0.01,0.01-0.27-0.12-0.57-0.3l-53.2-30.7c-0.28-0.16-0.52-0.31-0.51-0.33l0.49-0.28
			c0.01-0.01,0.27,0.12,0.57,0.3l53.2,30.7c0.3,0.16,0.52,0.31,0.51,0.33L296.2,152.89z"/>
		<path class="st9" d="M257.03,119.99c-0.24,0.13-0.75,0.09-1.12-0.13l-10.26-5.92c-0.36-0.21-0.48-0.51-0.22-0.64l6.81-3.93
			c0.24-0.13,0.75-0.07,1.12,0.13l10.26,5.92c0.37,0.21,0.46,0.51,0.22,0.64L257.03,119.99z"/>
		<path class="st9" d="M271.17,128.15c-0.24,0.13-0.75,0.07-1.11-0.13l-10.26-5.92c-0.37-0.21-0.48-0.51-0.22-0.64l6.81-3.93
			c0.24-0.13,0.75-0.07,1.12,0.13l10.26,5.92c0.36,0.21,0.46,0.51,0.22,0.64L271.17,128.15z"/>
		<path class="st9" d="M285.32,136.31c-0.24,0.13-0.75,0.09-1.11-0.13l-10.28-5.92c-0.37-0.21-0.46-0.51-0.22-0.64l6.81-3.93
			c0.24-0.13,0.75-0.09,1.11,0.13l10.28,5.92c0.37,0.21,0.46,0.51,0.22,0.64L285.32,136.31z"/>
		<path class="st9" d="M299.46,144.48c-0.24,0.13-0.75,0.09-1.11-0.13l-10.28-5.92c-0.37-0.21-0.48-0.51-0.22-0.64l6.81-3.93
			c0.24-0.13,0.75-0.09,1.12,0.13l10.28,5.92c0.37,0.21,0.46,0.51,0.22,0.64L299.46,144.48z"/>
		<path class="st9" d="M313.6,152.63c-0.24,0.13-0.75,0.07-1.12-0.13l-10.26-5.92c-0.37-0.21-0.46-0.51-0.22-0.64l6.81-3.93
			c0.24-0.13,0.75-0.09,1.11,0.13l10.26,5.92c0.37,0.21,0.48,0.51,0.22,0.64L313.6,152.63z"/>
		<path class="st9" d="M327.76,160.79c-0.24,0.13-0.75,0.07-1.12-0.13l-10.26-5.92c-0.37-0.21-0.48-0.51-0.22-0.64l6.81-3.93
			c0.24-0.13,0.75-0.09,1.12,0.13l10.26,5.92c0.37,0.21,0.46,0.51,0.22,0.64L327.76,160.79z"/>
		<path class="st9" d="M359.61,179.17c-0.24,0.13-0.75,0.09-1.12-0.13l-27.98-16.14c-0.37-0.21-0.46-0.51-0.22-0.64l6.81-3.93
			c0.24-0.13,0.75-0.09,1.12,0.13l27.98,16.14c0.37,0.21,0.46,0.51,0.22,0.64L359.61,179.17z"/>
		<path class="st9" d="M273.32,118.56c-0.24,0.15-0.73,0.09-1.11-0.13l-10.28-5.92c-0.37-0.21-0.48-0.49-0.22-0.64l6.81-3.93
			c0.24-0.13,0.75-0.07,1.11,0.13l10.28,5.92c0.37,0.21,0.46,0.49,0.22,0.64L273.32,118.56z"/>
		<path class="st9" d="M287.48,126.73c-0.24,0.15-0.75,0.07-1.11-0.13l-10.28-5.92c-0.36-0.21-0.46-0.49-0.22-0.64l6.81-3.93
			c0.24-0.13,0.75-0.07,1.11,0.13l10.28,5.92c0.36,0.21,0.46,0.51,0.22,0.64L287.48,126.73z"/>
		<path class="st9" d="M301.62,134.89c-0.24,0.15-0.75,0.07-1.11-0.13l-10.26-5.92c-0.36-0.21-0.48-0.51-0.22-0.64l6.81-3.93
			c0.24-0.13,0.75-0.07,1.12,0.13l10.26,5.92c0.37,0.21,0.46,0.51,0.22,0.64L301.62,134.89z"/>
		<path class="st9" d="M315.76,143.06c-0.24,0.15-0.75,0.07-1.11-0.13L304.39,137c-0.37-0.21-0.48-0.49-0.22-0.64l6.81-3.93
			c0.24-0.13,0.75-0.07,1.11,0.13l10.26,5.92c0.37,0.21,0.46,0.51,0.22,0.64L315.76,143.06z"/>
		<path class="st9" d="M329.91,151.21c-0.24,0.15-0.75,0.07-1.11-0.13l-10.28-5.92c-0.37-0.21-0.48-0.49-0.22-0.64l6.81-3.93
			c0.24-0.13,0.73-0.09,1.11,0.13l10.28,5.92c0.37,0.21,0.46,0.51,0.22,0.64L329.91,151.21z"/>
		<path class="st9" d="M344.05,159.37c-0.24,0.15-0.75,0.09-1.11-0.13l-10.26-5.92c-0.37-0.21-0.48-0.51-0.22-0.64l6.81-3.93
			c0.24-0.13,0.75-0.07,1.12,0.13l10.26,5.92c0.37,0.21,0.46,0.51,0.22,0.64L344.05,159.37z"/>
		<path class="st9" d="M358.19,167.53c-0.24,0.15-0.75,0.07-1.11-0.13l-10.28-5.92c-0.37-0.21-0.46-0.49-0.22-0.64l6.81-3.93
			c0.24-0.13,0.73-0.09,1.11,0.13l10.28,5.92c0.37,0.21,0.46,0.51,0.22,0.64L358.19,167.53z"/>
		<path class="st9" d="M279.35,111.22c-0.25,0.15-0.75,0.09-1.12-0.13l-10.28-5.92c-0.36-0.21-0.46-0.49-0.22-0.64l6.81-3.93
			c0.24-0.13,0.75-0.07,1.11,0.13l10.28,5.92c0.37,0.21,0.46,0.51,0.22,0.64L279.35,111.22z"/>
		<path class="st9" d="M293.49,119.37c-0.25,0.15-0.75,0.09-1.12-0.12l-10.28-5.92c-0.37-0.21-0.48-0.51-0.22-0.64l6.81-3.93
			c0.24-0.13,0.75-0.07,1.11,0.13l10.28,5.92c0.36,0.21,0.46,0.49,0.22,0.64L293.49,119.37z"/>
		<path class="st9" d="M307.63,127.54c-0.25,0.15-0.75,0.09-1.12-0.13l-10.26-5.92c-0.37-0.21-0.46-0.49-0.22-0.64l6.81-3.93
			c0.24-0.13,0.75-0.07,1.11,0.13l10.26,5.92c0.37,0.21,0.48,0.51,0.22,0.64L307.63,127.54z"/>
		<path class="st9" d="M321.79,135.7c-0.25,0.15-0.75,0.09-1.12-0.12l-10.28-5.92c-0.37-0.21-0.48-0.51-0.22-0.64l6.81-3.93
			c0.24-0.13,0.75-0.07,1.11,0.13l10.28,5.92c0.37,0.21,0.46,0.49,0.22,0.64L321.79,135.7z"/>
		<path class="st9" d="M335.92,143.86c-0.25,0.15-0.75,0.09-1.11-0.12l-10.28-5.92c-0.37-0.21-0.46-0.51-0.22-0.64l6.81-3.93
			c0.24-0.13,0.73-0.09,1.11,0.13l10.28,5.92c0.36,0.21,0.46,0.49,0.22,0.64L335.92,143.86z"/>
		<path class="st9" d="M350.08,152.02c-0.25,0.15-0.75,0.09-1.12-0.13l-10.26-5.92c-0.36-0.21-0.46-0.49-0.22-0.64l6.81-3.93
			c0.24-0.13,0.75-0.07,1.11,0.13l10.26,5.92c0.37,0.21,0.48,0.51,0.24,0.64L350.08,152.02z"/>
		<path class="st9" d="M364.22,160.19c-0.25,0.15-0.75,0.09-1.12-0.12l-10.28-5.92c-0.37-0.21-0.46-0.51-0.22-0.64l6.81-3.93
			c0.24-0.13,0.75-0.09,1.11,0.13l10.28,5.92c0.37,0.21,0.46,0.51,0.22,0.64L364.22,160.19z"/>
		<path class="st9" d="M251.14,94.94c-0.25,0.15-0.75,0.09-1.12-0.13L232.6,84.75c-0.37-0.21-0.48-0.51-0.22-0.64l6.81-3.93
			c0.24-0.13,0.75-0.07,1.11,0.13l17.42,10.05c0.37,0.21,0.48,0.51,0.22,0.64L251.14,94.94z"/>
		<path class="st9" d="M387.72,162.93c-0.24,0.13-0.75,0.09-1.12-0.13l-17.42-10.05c-0.36-0.21-0.46-0.51-0.22-0.64l6.81-3.93
			c0.24-0.15,0.75-0.07,1.12,0.13l17.42,10.05c0.37,0.21,0.48,0.51,0.22,0.64L387.72,162.93z"/>
		<path class="st9" d="M245.11,102.29c-0.24,0.15-0.73,0.09-1.11-0.13l-20.77-11.98c-0.37-0.21-0.48-0.51-0.22-0.64l6.81-3.93
			c0.24-0.13,0.75-0.07,1.11,0.13l20.77,11.98c0.37,0.21,0.46,0.51,0.22,0.64L245.11,102.29z"/>
		<path class="st9" d="M228.81,103.71c-0.24,0.13-0.75,0.09-1.12-0.13l-13.84-7.99c-0.37-0.21-0.46-0.51-0.22-0.64l6.81-3.93
			c0.24-0.13,0.75-0.09,1.12,0.13l13.84,7.99c0.37,0.21,0.46,0.51,0.22,0.64L228.81,103.71z"/>
		<path class="st9" d="M267.5,93.56c-0.24,0.13-0.75,0.09-1.12-0.13l-10.26-5.92c-0.37-0.21-0.48-0.51-0.22-0.64l6.81-3.93
			c0.24-0.15,0.75-0.09,1.12,0.13l10.26,5.92c0.37,0.21,0.48,0.51,0.22,0.64L267.5,93.56z"/>
		<path class="st9" d="M281.58,101.69c-0.24,0.13-0.75,0.09-1.12-0.13l-10.28-5.92c-0.37-0.21-0.46-0.51-0.22-0.64l6.81-3.93
			c0.24-0.15,0.75-0.09,1.12,0.13l10.28,5.92c0.37,0.21,0.48,0.51,0.22,0.64L281.58,101.69z"/>
		<path class="st9" d="M295.72,109.84c-0.24,0.13-0.75,0.09-1.11-0.13l-10.28-5.92c-0.37-0.21-0.46-0.51-0.22-0.64l6.81-3.93
			c0.24-0.15,0.75-0.09,1.12,0.13l10.28,5.92c0.37,0.21,0.46,0.49,0.22,0.64L295.72,109.84z"/>
		<path class="st9" d="M309.86,118.01c-0.24,0.13-0.75,0.09-1.12-0.13l-10.26-5.92c-0.37-0.21-0.48-0.51-0.22-0.64l6.81-3.93
			c0.24-0.15,0.75-0.09,1.12,0.13l10.26,5.92c0.37,0.21,0.48,0.51,0.22,0.64L309.86,118.01z"/>
		<path class="st9" d="M324,126.17c-0.24,0.13-0.73,0.09-1.11-0.12l-10.26-5.92c-0.37-0.21-0.48-0.51-0.22-0.64l6.81-3.93
			c0.24-0.15,0.75-0.09,1.12,0.13l10.26,5.92c0.37,0.21,0.46,0.49,0.22,0.64L324,126.17z"/>
		<path class="st9" d="M338.15,134.32c-0.24,0.13-0.75,0.09-1.11-0.13l-10.28-5.92c-0.37-0.21-0.46-0.49-0.22-0.64l6.81-3.93
			c0.24-0.15,0.75-0.09,1.11,0.12l10.28,5.92c0.36,0.21,0.46,0.49,0.22,0.64L338.15,134.32z"/>
		<path class="st9" d="M352.29,142.49c-0.24,0.13-0.75,0.09-1.12-0.13l-10.26-5.92c-0.37-0.21-0.48-0.51-0.22-0.64l6.81-3.93
			c0.24-0.15,0.75-0.09,1.12,0.13l10.26,5.92c0.37,0.21,0.48,0.51,0.22,0.64L352.29,142.49z"/>
		<path class="st9" d="M366.43,150.64c-0.24,0.13-0.75,0.09-1.11-0.12l-10.28-5.92c-0.36-0.21-0.46-0.49-0.22-0.64l6.81-3.93
			c0.24-0.15,0.75-0.09,1.11,0.12l10.28,5.92c0.37,0.21,0.46,0.49,0.22,0.64L366.43,150.64z"/>
		<path class="st9" d="M374.66,157.84c-0.16-0.1-0.37-0.16-0.6-0.19c-0.22-0.03-0.39,0-0.51,0.07l-6.81,3.93
			c-0.12,0.06-0.16,0.16-0.12,0.3c0.04,0.12,0.16,0.25,0.34,0.34l2.68,1.54l-8.93,5.16c-0.12,0.06-0.16,0.18-0.12,0.3
			c0.04,0.12,0.16,0.25,0.34,0.34l6.91,3.99c0.18,0.1,0.39,0.18,0.6,0.19c0.22,0.03,0.4,0,0.51-0.06l16.17-9.35
			c0.12-0.06,0.16-0.16,0.12-0.3c-0.04-0.13-0.16-0.25-0.34-0.34L374.66,157.84z"/>
	</g>
	<g>
		<path class="st10" d="M421.25,211.85l-15.8,10.82c-5.82,3.99-14.63,3.47-19.58-1.15l0,0c-4.95-4.62-4.23-11.67,1.59-15.66
			l15.8-10.82c5.82-3.99,14.63-3.47,19.58,1.15l0,0C427.79,200.81,427.09,207.86,421.25,211.85z"/>
		<path class="st11" d="M417.3,208.22l-15.8,10.82c-5.82,3.99-14.63,3.47-19.58-1.15l0,0c-4.95-4.62-4.23-11.67,1.59-15.66
			l15.8-10.82c5.82-3.99,14.63-3.47,19.58,1.15l0,0C423.84,197.17,423.12,204.22,417.3,208.22z"/>
		<g>
			<g>
				<path class="st10" d="M413.44,190.79c-2,0.48-3.83,1.5-5.37,2.86c-0.42,0.36-0.66,1.05-0.66,1.57c0,0.55,0.24,1.2,0.66,1.57
					c0.42,0.39,0.99,0.67,1.57,0.66c0.61-0.03,1.11-0.24,1.57-0.66c0.16-0.15,0.33-0.28,0.51-0.42c-0.15,0.12-0.3,0.24-0.45,0.34
					c0.7-0.54,1.47-0.99,2.27-1.33c-0.18,0.07-0.36,0.15-0.54,0.22c0.52-0.22,1.05-0.39,1.6-0.52c0.54-0.13,1.06-0.55,1.33-1.02
					c0.28-0.48,0.4-1.18,0.22-1.72C415.81,191.16,414.65,190.5,413.44,190.79L413.44,190.79z"/>
			</g>
		</g>
	</g>
	<g>
		<path class="st0" d="M251.76,92.76c0,0-15.55-1.83-18.48,1.41S252.5,101.06,251.76,92.76z"/>
		<path class="st0" d="M242.11,90.69c0,0-14.23,1.24-24.7,17.62C217.41,108.3,244.88,95.15,242.11,90.69z"/>
		<path class="st0" d="M238.63,87.55c0,0-17.49,1.97-26.72,19.84c0,0,5.97,5.3,8.89,3.77C228.57,107.12,240.65,90.8,238.63,87.55z"
			/>
		<path class="st0" d="M258,89.36c0,0-15.65-0.63-18.33,2.8C236.98,95.58,259.37,97.57,258,89.36z"/>
		<path class="st0" d="M252.2,86.74c0,0-15.65-0.63-18.33,2.8C231.19,92.96,253.56,94.95,252.2,86.74z"/>
		<path class="st0" d="M212.64,108.69l20.65-12.12c0,0,29.64-6.37,31.93-1.57c2.98,6.27-16.62,5.61-16.62,5.61
			s-15.75,7.6-15.72,8.12c0.01,0.22-1.18,1.41-0.66,2.48c0.88,1.81,1.77,1.51,3.74,0.96l6.63-2.9c0,0,8.93-4.25,9.49-0.37
			c0.48,3.49-7.71,5.25-7.71,5.25l-13.24,7.68l-10.16,1.62c-4.73,0.75-9.34-1.9-11.04-6.37l-0.12-0.3
			C208.64,113.75,209.86,110.34,212.64,108.69z"/>
	</g>
	<path class="st0" d="M340.89,135.58c0.04,0.03,1.23,0.91,1.08,2.66c0,0.01,0,0.03,0,0.03c-0.3,3.13-4.55,6.76-12.66,10.82
		c-0.25,0.21-1.08,1.11-2.2,2.39c2.81-1.15,6.37-1.57,9.04-0.91c10.59,2.6,14.84,5.88,15.02,6.01l0.24,0.19l0.01,0.3
		c0,0.12,0.04,1.14-1.03,1.95c-2.09,1.57-6.82,1.08-14.03-1.51c-1.95-0.69-4.16-0.34-6.63,1.03c1.71-0.6,3.47-0.7,5.01-0.3
		c4.82,1.3,14.27,6.15,14.68,6.34l0.37,0.19v0.42c0,0.1-0.04,1.05-1.09,1.75c-0.36,0.24-0.81,0.42-1.32,0.54
		c0.15,0.04,0.24,0.07,0.24,0.07l0.66,0.21l-0.22,0.66c-1.62,4.82-6.9,3.29-10.77,2.17c-0.49-0.15-0.99-0.28-1.45-0.42
		c-1.81-0.49-4.4-0.55-5.76,0.88c-3.77,3.95-6.25,7.14-7,8.95c-0.18,0.45-2.5,3.79-2.78,4.29c-5.49,9.64-17.39,2.81-17.48-8.44
		c6.73-10.35,14.09-26.86,20.48-30.37l0.07-0.09l17.18-10.14L340.89,135.58z"/>
	<path class="st12" d="M122.52,257.65l-77.16,59.61c-12.6,7.72-22.07,0.06-22.05-13.2l-1.47-21.59
		c0.01-13.26,10.34-30.42,22.94-38.14l77.8-47.64c12.6-7.72,22.91-3.19,22.89,10.08l-0.01,12.73
		C145.45,232.78,135.12,249.94,122.52,257.65z"/>
	<g>
		<g>
			<path class="st0" d="M243.76,225.56c14.06-5.21,28.01-10.8,40.89-18.57c10.25-6.18,20.18-12.61,30.88-18.04
				c10.25-5.21,2.65-21.37-7.62-16.16c-10.68,5.43-20.63,11.86-30.88,18.04c-12.88,7.77-26.83,13.36-40.89,18.57
				C225.34,213.41,233.05,229.52,243.76,225.56L243.76,225.56z"/>
		</g>
		<g>
			<g>
				<path class="st3" d="M300.61,203.26c0,0-15.99-10.64-10.52-25.52l10.37-6.01c7.18,0.79,14.39,20.21,11.89,24.33L300.61,203.26z"
					/>
			</g>
		</g>
		<path class="st13" d="M219.85,210.06l73.06-35.79c3.26,3.11,9.11,16.95,11.21,30.13l-44.69,19.75
			c-18.75,8.89-28.2,3.53-40.95-11.25C218.41,212.81,218.49,212.9,219.85,210.06z"/>
	</g>
	<g>
		<g>
			<path class="st0" d="M143.22,161.83c14.03-5.28,27.95-10.97,40.79-18.81c10.2-6.24,20.12-12.73,30.78-18.22
				c10.22-5.27,2.53-21.38-7.71-16.11c-10.65,5.49-20.57,11.98-30.78,18.22c-12.84,7.84-26.75,13.51-40.79,18.81
				C124.72,149.77,132.53,165.86,143.22,161.83L143.22,161.83z"/>
		</g>
		<g>
			<g>
				<path class="st3" d="M199.95,139.21c0,0-16.05-10.55-10.67-25.46l10.32-6.07c7.18,0.75,14.5,20.14,12.03,24.27L199.95,139.21z"
					/>
			</g>
		</g>
		<path class="st14" d="M119.22,146.47l72.86-36.19c3.28,3.1,9.22,16.89,11.39,30.07l-68.21,33.01
			C124.26,167.61,119.58,158.27,119.22,146.47z"/>
	</g>
	<g>
		<path class="st1" d="M168.37,346.1l70.48-45.33c0,0-8.11-58.47-50.68-51.89c-70.14,10.85-82.47-4.23-82.47-4.23l-3.05,55.69
			C97.61,360.24,145.07,359.88,168.37,346.1z"/>
	</g>
	<path class="st13" d="M93.6,160.71c0,0,9.08,101.2,10.55,108.52c0,0,54.39,49.12,83.62,0.76l0,0l0,0
		c-3.7-8.53-3.79-18.19-0.25-26.78l4.28-10.4c7.41-18,9.38-37.76,5.7-56.87l-0.58-3.05L93.6,160.71z"/>
	<path class="st13" d="M184.45,192.95c2.44-1.36,8.68-11.73,8.68-11.73c2.26-14.15,9.29-27.69-3.7-40.17
		c-3.35-3.22-35.41-23-60.64-28.68c-12.24-2.75-24.72,3.59-30.18,14.87c-1.95,4.01-3.96,10.46-5.24,14.9
		c-1.11,3.86-0.85,10.62-0.36,15.01c1.75,15.59,7.54-0.13,8.63,12.81c-0.04-0.34-4.11-1.8-4.14-2.14c0,0,8.41,9.41,9.99,28.38
		c0.97,11.82,1.66,20.38,1.71,21.57c0,0.06,0,0.13,0,0.15l42.63,36.66l25-40.92l0,0L184.45,192.95z"/>
	<path class="st0" d="M133.94,120.99l9.68-35.91l21.49,15.83l-7.56,28.02C156.68,134.26,131.82,133.24,133.94,120.99z"/>
	<g>
		<g>
			<g>
				<g>
					<path class="st3" d="M120.71,114.72c-7.27,5.33,8.33,15.07,15.2,18.36c8.75,4.2,31.61,0.33,40.92-0.22
						c3.32-0.19-11.97-9.56-15.34-9.37c-14.29,0.84-23.95,1.44-28.95-10.13c-2.36-5.49-19.78-29.06-5.1,1.17L120.71,114.72z"/>
				</g>
			</g>
		</g>
	</g>
	<g>
		<path class="st0" d="M155.59,35.65c0,0-20.41-21.92-25.48,12.06c-3.53,23.64,9.25,46.44,29.13,58.77
			c12.39,7.68,29.59,2.68,32-9.01c5.61-16.73,7.94-32.78,3.77-47.5c2.9-14.08-8.5-10.58-26.83-14.2L155.59,35.65z"/>
		<path class="st15" d="M129.5,97c0,0-22.19-8.06-14-43.31c7.18-30.91,32.77-30.81,52.82-29.94c8.87,0.37,24.15,8.59,27.66,17.28
			c4.13,10.23-0.18,9.7-10.71,13.39c-4.44,1.56-3.89,14.5-5.42,18.66c-2.72,7.39-11.46,9.37-14.24,16.52
			c-2.63,6.76-7.78,13.93-14.6,13.78C138.86,103.08,129.5,97,129.5,97z"/>
		<path class="st0" d="M175.44,82.67c-0.31,5.85-3.95,10.41-8.15,10.19c-0.46-0.03-0.9-0.1-1.33-0.24c-3.5-1.08-5.97-5.55-5.7-10.76
			c0.31-5.85,3.95-10.41,8.15-10.19C172.6,71.9,175.76,76.82,175.44,82.67z"/>
		<g>
			<g>
				<path class="st1" d="M153.26,45.3c-1.71,7.48-9.43,12.12-17.24,10.34s-12.76-9.29-11.06-16.77s9.41-12.12,17.24-10.34
					C150.01,30.29,154.96,37.8,153.26,45.3z"/>
			</g>
		</g>
		<path class="st16" d="M127.75,32.47c7.06-0.09,13.41,6,14.38,13.44c1.42,10.91,8.78,58.32-4.37,79.81
			c-11.52,0.15-22.07-3.73-30.3-17.04c0,0-5.52-14.12-1.2-38.81c4.29-24.51,14.48-35.21,14.48-35.21
			C122.63,33.28,124.26,32.52,127.75,32.47z"/>
		<g>
			<path class="st0" d="M201.73,83.31L201.73,83.31c0.03,0.69-0.52,1.26-1.06,1.69c-1.51,1.23-3.28,2.17-5.15,2.72
				c-0.9,0.27-1.92,0.43-2.71-0.06c-0.84-0.52-1.09-1.63-1.15-2.62c-0.15-2.62,0.66-7.2,3.71-7.96c1.26-0.31-0.03-8.99,0.24-7.77
				C196.72,74.23,199.94,80.41,201.73,83.31z"/>
		</g>
		
			<ellipse transform="matrix(0.1086 -0.9941 0.9941 0.1086 95.6019 255.9394)" class="st17" cx="190.51" cy="74.66" rx="2.78" ry="1.56"/>
		<g>
			<path class="st15" d="M188.06,68.61c1.47-0.87,3.62-1.83,5.36-1.36c1.36,0.36,1.95-1.74,0.6-2.09c-2.32-0.63-5.04,0.39-7.03,1.57
				C185.77,67.43,186.85,69.33,188.06,68.61L188.06,68.61z"/>
		</g>
		<g>
			<g>
				<path class="st18" d="M181.07,92.08c0.31,1.51,1.2,2.8,2.47,3.65c0.99,0.67,2.15,0.96,3.32,1.11c0.34,0.04,0.69,0.07,1.05,0.07
					c0.84,0,1.65-0.75,1.6-1.6c-0.04-0.87-0.7-1.6-1.6-1.6c-0.36,0-0.7-0.03-1.06-0.07c0.15,0.01,0.28,0.04,0.43,0.06
					c-0.57-0.07-1.14-0.22-1.66-0.43c0.13,0.06,0.25,0.1,0.39,0.16c-0.22-0.09-0.43-0.21-0.64-0.33c-0.1-0.06-0.21-0.13-0.31-0.21
					c-0.21-0.15,0.36,0.3,0.13,0.1c-0.04-0.04-0.1-0.09-0.15-0.12c-0.09-0.09-0.19-0.18-0.27-0.28c-0.04-0.04-0.07-0.09-0.1-0.13
					c-0.16-0.19,0.28,0.39,0.07,0.09c-0.16-0.24-0.3-0.49-0.42-0.76c0.06,0.13,0.1,0.25,0.16,0.39c-0.12-0.3-0.21-0.61-0.28-0.93
					c-0.16-0.82-1.18-1.38-1.97-1.12C181.32,90.39,180.89,91.2,181.07,92.08L181.07,92.08z"/>
			</g>
		</g>
		<path class="st18" d="M170.55,83.37c0.69-0.55,0.73-1.57,0.1-2.18c-0.91-0.87-2.3-1.65-3.34,0.19c-1.05,1.87,0.09,4.13,1.09,5.55
			c0.18,0.25,0.57,0.07,0.49-0.24c-0.22-0.93-0.22-2.03,0.69-2.65C169.98,83.81,170.3,83.58,170.55,83.37z"/>
	</g>
	<g>
		<g>
			<g>
				<g>
					<path class="st4" d="M259.34,451.24l0.4-0.06c2.69-0.4,4.55-2.9,4.16-5.6l-19.18-129.34c-0.4-2.69-2.9-4.55-5.6-4.16l-0.4,0.06
						c-2.69,0.4-4.55,2.9-4.16,5.6l19.18,129.34C254.14,449.77,256.64,451.63,259.34,451.24z"/>
				</g>
			</g>
			<g>
				<g>
					<path class="st4" d="M16.39,459.69L16.39,459.69c-2.71-0.4-4.58-2.92-4.17-5.63l23.31-157.22c0.4-2.71,2.92-4.58,5.63-4.17l0,0
						c2.71,0.4,4.58,2.92,4.17,5.63L22.01,455.52C21.61,458.23,19.09,460.1,16.39,459.69z"/>
				</g>
			</g>
			<g>
				<g>
					<path class="st4" d="M130.72,526.56L130.72,526.56c-2.9-0.43-4.91-3.13-4.47-6.03l27.23-183.63c0.43-2.9,3.13-4.91,6.03-4.47
						l0,0c2.9,0.43,4.91,3.13,4.47,6.03l-27.23,183.63C136.32,524.99,133.63,526.98,130.72,526.56z"/>
				</g>
			</g>
			<g>
				<g>
					<path class="st19" d="M148.08,396.7L36.21,331.86c-10.49-6.06-16.29-18.12-16.29-18.12c-3.92-9.02,5.45-15.55,15.93-9.49
						l102.62,60.42c10.49,6.06,14.45,12.39,12.76,19.9C151.24,384.57,161.38,403.57,148.08,396.7z"/>
				</g>
			</g>
			<g>
				<g>
					<path class="st19" d="M245.57,348.66l-77.8,47.64c-12.6,7.72-22.34,4.1-21.65-8.05l0.67-11.67
						c0.7-12.13,11.58-28.38,24.18-36.1l77.8-47.64c12.6-7.72,22.34-4.1,21.65,8.05l-0.67,11.67
						C269.06,324.71,258.17,340.96,245.57,348.66z"/>
				</g>
			</g>
		</g>
		<g>
			<g>
				<path class="st19" d="M19.98,312.11L0.5,190.29c-3.29-18.01,10.17-24.01,29.16-12.99l75.98,44.09
					c13.69,7.94,26.68,22.79,32.5,37.11l32.06,79.1c9.19,22.68-10.65,44.99-29.85,33.56L19.98,312.11z"/>
			</g>
		</g>
	</g>
	<path class="st13" d="M228.05,221.56l-63.57-57.68c-6.82-6.18-7.69-16.59-2-23.83l0,0c6.49-8.27,19.5-3.22,29.09,4.41l54.66,51.6
		L228.05,221.56z"/>
	<g>
		<g>
			<path class="st20" d="M178.81,82.51c-1.59,7.74-7.77,13.02-13.82,11.77c-6.04-1.24-9.68-8.51-8.09-16.26
				c1.59-7.74,7.77-13.02,13.82-11.77C176.78,67.48,180.4,74.76,178.81,82.51z"/>
		</g>
	</g>
	<g>
		<g>
			<path class="st21" d="M173.72,83.37c-0.9,4.41-4.43,7.42-7.87,6.7c-3.44-0.7-5.51-4.85-4.61-9.26c0.9-4.41,4.43-7.42,7.87-6.7
				C172.56,74.83,174.62,78.98,173.72,83.37z"/>
		</g>
	</g>
	<path class="st22" d="M167.13,85.27c0,0-2.77,30.87,30.39,17.25"/>
	<g>
		<g>
			<ellipse class="st21" cx="198.29" cy="99.41" rx="4.55" ry="5.09"/>
		</g>
	</g>
	<g>
		<path class="st20" d="M162.83,74.86c0,0,4.71-50.51-13.36-51.36c0,0,5.76-6.4,12.64-2.54c6.88,3.86,11.64,30.58,5.73,52.99
			L162.83,74.86z"/>
	</g>
</g>
<g>
	<ellipse class="st23" cx="558.65" cy="493.84" rx="41.35" ry="18.97"/>
	<g>
		
			<ellipse transform="matrix(5.421836e-03 -1 1 5.421836e-03 43.8029 1026.8252)" class="st24" cx="538.11" cy="491.39" rx="19.2" ry="33.25"/>
		<polygon class="st24" points="489.3,444.81 504.95,492.76 571.09,493.84 586.19,447.62 		"/>
		<path class="st25" d="M565.65,446.71l-15.1,46.04h-0.02c-2.08,7.05-3.98,8.62-9.41,11.74c-3.92,2.26-8.6,4.22-13.57,5.07
			c11.18,1.89,23.61-0.24,32.36-5.28c5.43-3.13,8.56-4.73,9.41-11.54h0.02l15.1-46.04L565.65,446.71L565.65,446.71z"/>
		
			<ellipse transform="matrix(5.422136e-03 -1 1 5.422136e-03 91.8205 979.0477)" class="st8" cx="538.1" cy="443.36" rx="28.35" ry="49.12"/>
		
			<ellipse transform="matrix(5.422162e-03 -1 1 5.422162e-03 95.281 975.6443)" class="st24" cx="538.11" cy="439.92" rx="28.35" ry="49.12"/>
		
			<ellipse transform="matrix(5.422849e-03 -1 1 5.422849e-03 94.0369 976.1769)" class="st26" cx="537.76" cy="440.81" rx="24.34" ry="42.16"/>
	</g>
	<g>
		<path class="st27" d="M539.45,426.49c4.17-38.02,36.52-100.53,36.52-100.53c-41.68,12.37-44.42,53.56-44.42,53.56L539.45,426.49z"
			/>
		<path class="st27" d="M530.02,392.89c4.4-38-13.99-105.99-13.99-105.99c37.87,21.35,31.37,62.11,31.37,62.11L530.02,392.89z"/>
		<path class="st27" d="M593.9,347.03c-34.79,7.85-55.81,68.75-55.81,68.75l-0.01,0.12c-1.29-77.61-50.3-98.18-50.3-98.18
			c14.63,21.31,28.43,93.87,32.59,117.32c1.57,8.81,9.38,15.26,18.31,14.83c0.49-0.03,0.99-0.06,1.5-0.12
			c7.65-0.84,13.68-6.81,15.17-14.36C561.76,402.91,593.9,347.03,593.9,347.03z"/>
	</g>
</g>
</svg>
