<?xml version="1.0" encoding="utf-8"?>
<!-- Generator: Adobe Illustrator 24.1.1, SVG Export Plug-In . SVG Version: 6.00 Build 0)  -->
<svg version="1.1" id="Layer_1" xmlns="http://www.w3.org/2000/svg" xmlns:xlink="http://www.w3.org/1999/xlink" x="0px" y="0px"
	 viewBox="0 0 600 800" style="enable-background:new 0 0 600 800;" xml:space="preserve">
<style type="text/css">
	.st0{fill:#00D1A7;}
	.st1{fill:#08F7C8;}
	.st2{fill:#FDFDFD;}
	.st3{opacity:0.19;fill:#88BDEB;enable-background:new    ;}
	.st4{fill:#9AD0FC;}
	.st5{fill:#C7E1F8;}
	.st6{fill:#FFFFFF;}
	.st7{fill:#6359C2;}
	.st8{fill:#E6F0FF;}
	.st9{fill:#4699E3;}
	.st10{fill:#1A93FF;}
	.st11{fill:#9C91FF;}
	.st12{fill:#2C1F9C;}
	.st13{opacity:0.75;}
</style>
<path class="st0" d="M149.2,139.44c2.6-30.45-15.62-69.3-40.68-86.77c-11.53-8.04-22.5-10.14-31.24-7.12v-0.01l-0.09,0.04
	c-1.18,0.41-2.32,0.92-3.41,1.52L53.27,57.21l10.54,0.01c-2.84,4.99-4.73,11.35-5.38,18.93c-2.6,30.45,15.62,69.3,40.68,86.77
	c5.13,3.58,10.15,5.96,14.91,7.26l2.47,6.54l14.32-6.83c0.8-0.29,1.56-0.64,2.32-1.02l0.25-0.12l-0.01-0.02
	C141.99,164.29,147.95,154.21,149.2,139.44z"/>
<ellipse transform="matrix(0.9054 -0.4245 0.4245 0.9054 -41.553 47.1657)" class="st1" cx="85.08" cy="116.84" rx="39.12" ry="67.76"/>
<g>
	<g>
		<g>
			<path class="st2" d="M86.19,147.16c-15.52-5.19-34.26-40.67-30.92-52.2c0.01-0.03,0.02-0.06,0.02-0.08
				c1.49-5.12,4.9-9.48,9.5-12.17l2.97-1.74c1.11-0.65,2.54-0.65,3.93-0.01c1.23,0.58,2.34,1.62,3.12,2.93l5.53,9.27
				c0.91,1.53,1.36,3.23,1.26,4.8c-0.1,1.72-0.89,3.14-2.14,3.87l-4.51,2.64c-0.04,0.04-0.16,0.38,0.04,0.93
				c1.33,3.78,2.92,7.34,4.7,10.57c1.98,3.12,4.37,6.2,7.06,9.17c0.4,0.44,0.75,0.5,0.81,0.48l4.51-2.64
				c2.47-1.45,6.1,0.07,8.08,3.4l5.53,9.27c1.72,2.88,1.35,6.26-0.81,7.54l-3.51,2.06c-4.43,2.59-9.71,3.37-14.68,2.08
				C86.47,147.25,86.3,147.2,86.19,147.16z"/>
		</g>
	</g>
</g>
<g>
	<path class="st3" d="M489.53,676.29l103.89-62.4c8.86-5.47,8.74-18.39-0.2-23.71L285.16,407.02l-40.49,128.07L489.53,676.29z"/>
	<path class="st4" d="M474.51,685L257.97,541.4c-13.54-7.82-24.52-28.8-24.52-46.85V21.95c0-18.06,10.98-26.35,24.52-18.53
		l226.07,130.53c13.54,7.82,24.52,28.8,24.52,46.85v470.37c0,11.88-4.45,16.83-11.92,21.15L474.51,685z"/>
	<path class="st5" d="M349.27,241.03c0,0-115.92,271.11-115.92,253.05L214.3,16.18l28.42-15.01c4.17-1.96,9.42-1.53,15.14,1.76
		l226.07,130.53c6.61,3.82,12.61,10.77,17.02,19L349.27,241.03z"/>
	<path class="st6" d="M461.27,683.46L235.76,552.94c-13.54-7.82-23.97-28.8-23.97-46.85V33.48c0-18.06,10.69-26.35,24.23-18.53
		l225.4,130.53c13.54,7.82,23.84,28.8,23.84,46.85v472.61C485.25,682.98,474.82,691.28,461.27,683.46z"/>
	<g>
		<g>
			<path class="st7" d="M456.75,685.14L231.23,554.62c-13.54-7.82-23.97-28.8-23.97-46.85V35.16c0-18.06,10.69-26.35,24.23-18.53
				l225.4,130.52c13.54,7.82,23.84,28.8,23.84,46.85V666.6C480.74,684.66,470.3,692.96,456.75,685.14z"/>
		</g>
	</g>
	<path class="st5" d="M450.49,604.37L230.61,477.43c-2.29-1.32-3.69-3.76-3.69-6.4V71.91c0-5.69,6.16-9.25,11.08-6.4l219.89,126.95
		c2.29,1.32,3.69,3.76,3.69,6.4v399.11C461.59,603.66,455.43,607.22,450.49,604.37z"/>
	<path class="st5" d="M382.44,134.91l-69.74-40.26c-2.45-1.42-4.45-5.24-4.45-8.5l0,0c0-3.26,2-4.78,4.45-3.36l69.74,40.26
		c2.45,1.42,4.45,5.24,4.45,8.5l0,0C386.89,134.82,384.89,136.33,382.44,134.91z"/>
	<path class="st8" d="M496.08,258.6L496.08,258.6c-3.7,1.57-6.73-0.4-6.73-4.4v-26.91c0-3.99,3.02-8.54,6.73-10.12l0,0
		c3.7-1.57,6.73,0.4,6.73,4.4v26.91C502.81,252.47,499.79,257.02,496.08,258.6z"/>
	<path class="st9" d="M498.98,258.95L498.98,258.95c-3.7,1.57-6.73-0.4-6.73-4.4v-26.91c0-3.99,3.02-8.54,6.73-10.12l0,0
		c3.7-1.57,6.73,0.4,6.73,4.4v26.91C505.71,252.82,502.67,257.38,498.98,258.95z"/>
	<path class="st8" d="M496.08,307.58L496.08,307.58c-3.7,1.57-6.73-0.4-6.73-4.4v-26.91c0-3.99,3.02-8.54,6.73-10.12l0,0
		c3.7-1.57,6.73,0.4,6.73,4.4v26.91C502.81,301.45,499.79,306,496.08,307.58z"/>
	<path class="st9" d="M498.98,307.94L498.98,307.94c-3.7,1.57-6.73-0.4-6.73-4.4v-26.91c0-3.99,3.02-8.54,6.73-10.12l0,0
		c3.7-1.57,6.73,0.4,6.73,4.4v26.91C505.71,301.81,502.67,306.37,498.98,307.94z"/>
	<g>
		<g>
			<path class="st2" d="M358.8,396.26l-101.07-58.35c-5.71-3.3-10.38-12.23-10.38-19.84V205.95c0-7.62,4.67-11.15,10.38-7.85
				l101.07,58.35c5.71,3.3,10.38,12.23,10.38,19.84v112.12C369.18,396.03,364.51,399.55,358.8,396.26z"/>
		</g>
	</g>
	<path class="st10" d="M437.15,263.8l-100.52-58.04c-5.86-3.38-10.65-12.54-10.65-20.36v-7.63c0-7.81,4.8-11.44,10.65-8.05
		l100.52,58.04c5.86,3.38,10.65,12.54,10.65,20.36v7.63C447.81,263.56,443.02,267.18,437.15,263.8z"/>
	<path class="st10" d="M437.15,560.46l-100.52-58.04c-5.86-3.38-10.65-12.54-10.65-20.36v-7.63c0-7.81,4.8-11.44,10.65-8.05
		l100.52,58.04c5.86,3.38,10.65,12.54,10.65,20.36v7.63C447.81,560.22,443.02,563.84,437.15,560.46z"/>
	<g>
		<g>
			<path class="st2" d="M358.53,452.71l-100.52-58.04c-5.86-3.38-10.65-12.54-10.65-20.36v-7.63c0-7.81,4.8-11.44,10.65-8.05
				l100.52,58.04c5.86,3.38,10.65,12.54,10.65,20.36v7.63C369.18,452.47,364.38,456.09,358.53,452.71z"/>
		</g>
	</g>
	<path class="st4" d="M353.38,299.12l-90.25-52.1c-1.89-1.09-3.43-4.03-3.43-6.55l0,0c0-2.51,1.54-3.68,3.43-2.59l90.25,52.1
		c1.89,1.09,3.43,4.03,3.43,6.55l0,0C356.82,299.04,355.27,300.21,353.38,299.12z"/>
	<path class="st4" d="M353.38,434.95l-90.25-52.1c-1.89-1.09-3.43-4.03-3.43-6.55l0,0c0-2.51,1.54-3.68,3.43-2.59l90.25,52.1
		c1.89,1.09,3.43,4.03,3.43,6.55l0,0C356.82,434.88,355.27,436.05,353.38,434.95z"/>
	<g>
		<g>
			<path class="st2" d="M432.01,246.45l-90.25-52.1c-1.89-1.09-3.43-4.03-3.43-6.55l0,0c0-2.51,1.54-3.68,3.43-2.59l90.25,52.1
				c1.89,1.09,3.43,4.03,3.43,6.55l0,0C435.44,246.38,433.9,247.55,432.01,246.45z"/>
		</g>
	</g>
	<path class="st4" d="M353.38,329.93l-90.25-52.1c-1.89-1.09-3.43-4.03-3.43-6.55l0,0c0-2.51,1.54-3.68,3.43-2.59l90.25,52.1
		c1.89,1.09,3.43,4.03,3.43,6.55l0,0C356.82,329.86,355.27,331.02,353.38,329.93z"/>
	<path class="st4" d="M318.83,340.8l-55.7-32.16c-1.89-1.09-3.43-4.03-3.43-6.55l0,0c0-2.51,1.54-3.68,3.43-2.59l55.7,32.16
		c1.89,1.09,3.43,4.03,3.43,6.55l0,0C322.27,340.72,320.72,341.88,318.83,340.8z"/>
	<g>
		<g>
			<path class="st2" d="M365.61,507.57l-26.56-15.33c-1.89-1.09-3.43-4.03-3.43-6.55l0,0c0-2.51,1.54-3.68,3.43-2.59l26.56,15.33
				c1.89,1.09,3.43,4.03,3.43,6.55l0,0C369.03,507.48,367.49,508.65,365.61,507.57z"/>
		</g>
	</g>
	<g>
		<g>
			<path class="st2" d="M434.74,547.48l-55.7-32.16c-1.89-1.09-3.43-4.03-3.43-6.55l0,0c0-2.51,1.54-3.68,3.43-2.59l55.7,32.16
				c1.89,1.09,3.43,4.03,3.43,6.55l0,0C438.17,547.4,436.63,548.56,434.74,547.48z"/>
		</g>
	</g>
</g>
<g>
	<g>
		<g>
			<g>
				<g>
					<path class="st5" d="M147.05,339.52L25.71,269.47c-9.6-5.54-17.38-20.41-17.38-33.21V184.1c0-12.8,7.78-18.68,17.38-13.14
						l121.35,70.06c9.6,5.54,17.38,20.41,17.38,33.21v52.16C164.43,339.19,156.66,345.06,147.05,339.52z"/>
				</g>
			</g>
		</g>
		<g>
			<g>
				
					<ellipse transform="matrix(0.7693 -0.6389 0.6389 0.7693 -137.2227 78.7385)" class="st6" cx="40.41" cy="229.37" rx="19.67" ry="31.99"/>
			</g>
			<g>
				<g>
					<g>
						<path class="st11" d="M31.05,234.24c0,0-7.05-0.64-8.93,3.46c10.18,16.1,29.32,22.92,35.92,17.76
							c-0.29-1.08-0.71-2.25-1.35-3.38c-2.22-4-6.3-8.02-6.3-8.02l-4.44-4.58c1.13,5.82-0.5,8.04-5.79,5.52
							c-4.5-2.21-6.34-5.95-5.78-11.06L31.05,234.24z"/>
					</g>
				</g>
			</g>
			<g>
				<path class="st12" d="M43.82,236.62c-2.93,0-6.56-2.17-9.02-5.63c-0.93-1.32-1.64-2.47-2.07-3.4c-1.25-2.71-2.03-5.64-2.17-8.24
					c0-0.07-0.05-0.66-0.1-1.36c-0.13-1.6-0.22-2.74-0.22-2.88c0-0.21,0.18-0.36,0.4-0.31c0.22,0.04,0.41,0.24,0.41,0.45
					c0,0.14,0.14,1.75,0.22,2.82c0.06,0.71,0.1,1.3,0.1,1.37c0.15,2.51,0.89,5.32,2.1,7.93c0.41,0.88,1.07,1.97,1.97,3.24
					c2.76,3.88,7.08,6.03,9.83,4.89c0.73-0.3,1.27-0.67,1.6-1.08c1.13-1.45,1.83-3.8,1.99-6.78c0-0.05,0.05-0.66,0.1-1.33
					c0.06-0.85,0.15-1.81,0.15-1.89c0.01-0.21,0.2-0.34,0.42-0.28c0.22,0.05,0.39,0.26,0.39,0.47c0,0.07-0.06,0.81-0.15,1.92
					c-0.05,0.66-0.1,1.26-0.1,1.31c-0.17,3.16-0.88,5.56-2.12,7.14c-0.39,0.49-1,0.91-1.84,1.26
					C45.14,236.5,44.5,236.62,43.82,236.62z"/>
			</g>
			<g>
				<path class="st12" d="M49.18,232.15c-0.2,0-0.34-0.03-0.36-0.04c-0.22-0.06-0.39-0.27-0.37-0.48c0.02-0.21,0.21-0.33,0.43-0.27
					c0.05,0.01,1.3,0.26,1.96-2.02c0.24-0.83,0.21-1.52-0.1-2.06c-0.33-0.56-0.86-0.75-0.88-0.76c-0.22-0.07-0.37-0.3-0.33-0.5
					c0.03-0.2,0.24-0.3,0.45-0.23c0.03,0.01,0.89,0.3,1.43,1.18c0.45,0.75,0.52,1.65,0.22,2.7
					C50.99,231.86,49.78,232.15,49.18,232.15z"/>
			</g>
			<g>
				<path class="st12" d="M31.52,223.63c-0.08,0-0.18-0.03-0.26-0.08c-0.08-0.05-2.07-1.44-2.83-4.96
					c-0.31-1.42-0.19-2.27,0.36-2.58c0.5-0.28,1.21,0,1.54,0.22c0.2,0.13,0.28,0.38,0.19,0.55c-0.09,0.17-0.34,0.21-0.54,0.08l0,0
					c-0.12-0.07-0.5-0.26-0.7-0.15c-0.1,0.06-0.41,0.37-0.07,1.87c0.68,3.13,2.4,4.37,2.42,4.38c0.2,0.14,0.27,0.38,0.17,0.55
					C31.75,223.58,31.64,223.63,31.52,223.63z"/>
			</g>
			<g>
				<path class="st12" d="M43.14,244.58c-0.72,0-1.62-0.26-2.68-0.78c-5.43-2.67-4.91-6.51-4.91-6.54l0.42-4.99
					c0.02-0.21,0.22-0.34,0.45-0.28c0.23,0.06,0.4,0.28,0.38,0.5l-0.43,5.01c-0.02,0.16-0.4,3.26,4.33,5.59
					c1.42,0.69,2.42,0.86,3.01,0.48c0.81-0.5,0.6-1.9,0.6-1.92l-0.37-5.3c-0.01-0.22,0.17-0.38,0.39-0.35
					c0.23,0.03,0.43,0.23,0.44,0.45l0.37,5.26c0.01,0.04,0.27,1.83-0.88,2.55C43.96,244.47,43.58,244.58,43.14,244.58z"/>
			</g>
			<g>
				<path class="st12" d="M58.02,255.83c-0.2,0-0.41-0.16-0.46-0.37c-0.9-3.38-2.76-6.45-5.51-9.13c-4.18-4.07-7.83-8.26-7.86-8.3
					c-0.16-0.18-0.16-0.42,0-0.55c0.16-0.12,0.41-0.07,0.57,0.1c0.03,0.04,3.65,4.2,7.8,8.24c2.83,2.77,4.84,6.08,5.77,9.57
					c0.05,0.21-0.07,0.4-0.28,0.42C58.05,255.83,58.03,255.83,58.02,255.83z"/>
			</g>
			<g>
				<path class="st12" d="M22.27,238.29c-0.06,0-0.14-0.02-0.21-0.05c-0.21-0.1-0.33-0.35-0.25-0.54c1-2.58,3.05-3.95,5.94-3.95
					c0.08,0,0.17,0,0.25,0c4.08,0,8.03-0.57,8.07-0.57c0.21-0.03,0.44,0.12,0.51,0.34c0.07,0.21-0.04,0.41-0.25,0.44
					c-0.04,0.01-4.04,0.58-8.18,0.58c-0.08,0-0.16,0-0.24,0c-2.63,0-4.43,1.2-5.34,3.56C22.52,238.22,22.4,238.29,22.27,238.29z"/>
			</g>
			<g>
				<path class="st12" d="M43.74,246.5c-1.36,0-2.81-0.7-3.47-1.03c-2.34-1.14-7.59-4.55-6.01-11.66c0.04-0.21,0.26-0.3,0.49-0.22
					c0.22,0.08,0.37,0.33,0.33,0.52c-1.39,6.27,2.81,9.35,5.44,10.63c0.82,0.4,2.96,1.45,4.25,0.64c1.1-0.69,1.44-2.56,1-5.57
					c-0.03-0.22,0.13-0.4,0.35-0.39c0.23,0.01,0.44,0.2,0.47,0.42c0.49,3.31,0.06,5.4-1.28,6.24
					C44.82,246.38,44.29,246.5,43.74,246.5z"/>
			</g>
			<g>
				<path class="st12" d="M43.7,248.82L43.7,248.82c-0.94-0.01-2.12-0.35-3.49-1.02c-1.36-0.66-2.53-1.47-3.47-2.37
					c-0.17-0.17-0.2-0.41-0.05-0.55c0.14-0.14,0.39-0.12,0.57,0.05c0.86,0.84,1.94,1.57,3.21,2.19c1.25,0.61,2.29,0.92,3.11,0.92
					c0.22,0,0.43,0.18,0.47,0.39C44.06,248.64,43.91,248.82,43.7,248.82z"/>
			</g>
			<g>
				<path class="st12" d="M51.5,226.49L51.5,226.49c-0.19,0-0.38-0.14-0.45-0.33c0,0-0.77-1.6-6.33-4.99
					c-1.08-0.66-2.14-1.5-3.15-2.51c-0.17-0.17-0.19-0.41-0.04-0.55c0.15-0.14,0.4-0.1,0.57,0.06c0.94,0.94,1.94,1.74,2.96,2.36
					c3.41,2.08,5.11,3.53,5.95,4.41c-0.04-1.15-0.17-3.15-0.5-5.53c-0.03-0.22,0.13-0.38,0.35-0.37c0.22,0.01,0.42,0.2,0.45,0.41
					c0.55,3.83,0.55,6.69,0.54,6.72C51.82,226.36,51.69,226.49,51.5,226.49z"/>
			</g>
			<g>
				<path class="st12" d="M50.52,217.11c-0.2,0-0.4-0.15-0.46-0.35c-1.49-4.65-6.48-9.55-10-11.06c-0.88-0.38-2.08-0.7-2.82-0.16
					c-1.83,1.34-0.9,3.66-0.86,3.77c0.02,0.04,1.23,3.24,3.59,6.42c0.14,0.19,0.12,0.43-0.05,0.52c-0.17,0.1-0.42,0.03-0.57-0.16
					c-2.46-3.3-3.67-6.51-3.72-6.64c-0.01-0.01-1.19-2.93,1.05-4.57c0.8-0.59,2.03-0.55,3.57,0.1c3.74,1.58,8.99,6.77,10.57,11.67
					c0.07,0.21-0.04,0.41-0.25,0.43C50.55,217.11,50.54,217.11,50.52,217.11z"/>
			</g>
			<g>
				<path class="st12" d="M29.05,215.17c-0.29,0-0.47-0.01-0.48-0.01c-0.14-0.01-0.26-0.08-0.36-0.2c-0.08-0.12-0.12-0.25-0.07-0.37
					c0.01-0.02,0.72-2.08,0.66-3.55v-0.05c-0.08-2,0.05-5.58,1.95-6.91c0.79-0.55,1.77-0.65,2.96-0.29c0.98,0.29,1.79,0.8,2.58,1.29
					l0.38,0.23c0.2,0.13,0.29,0.37,0.21,0.55c-0.09,0.18-0.33,0.22-0.52,0.09l-0.39-0.24c-0.77-0.47-1.49-0.92-2.35-1.18
					c-0.94-0.28-1.7-0.21-2.32,0.21c-1.72,1.21-1.76,4.85-1.69,6.36v0.05c0.04,1.12-0.29,2.5-0.52,3.24
					c1.68-0.01,6.25-0.47,6.53-5.1c0.01-0.21,0.2-0.34,0.42-0.28c0.22,0.05,0.39,0.26,0.38,0.47
					C36.09,214.76,30.71,215.17,29.05,215.17z"/>
			</g>
			<g>
				<path class="st12" d="M50.73,227.14c-0.12,0-0.25-0.05-0.35-0.16c-0.17-0.18-0.18-0.42-0.02-0.55l0.77-0.65
					c0.15-0.13,0.4-0.09,0.57,0.08c0.17,0.18,0.18,0.42,0.02,0.55l-0.77,0.65C50.89,227.11,50.81,227.14,50.73,227.14z"/>
			</g>
			<g>
				<path class="st12" d="M32.1,211.23c-0.07,0-0.16-0.02-0.23-0.06c-0.21-0.12-0.3-0.36-0.22-0.54c1.66-3.58,3.83-3.74,3.93-3.74
					c0.2-0.01,0.43,0.16,0.48,0.37s-0.07,0.4-0.28,0.41c-0.04,0-1.89,0.19-3.38,3.39C32.34,211.17,32.23,211.23,32.1,211.23z"/>
			</g>
			<g>
				<path class="st12" d="M51.5,226.15c-0.21,0-0.41-0.16-0.46-0.37c-0.01-0.03-0.93-3.39-4.24-7.7c-0.15-0.19-0.13-0.43,0.04-0.54
					c0.17-0.1,0.42-0.04,0.57,0.15c3.43,4.48,4.37,7.89,4.4,8.04c0.05,0.21-0.07,0.4-0.28,0.42
					C51.51,226.15,51.5,226.15,51.5,226.15z"/>
			</g>
		</g>
		<g>
			<g>
				<g>
					<path class="st2" d="M81.3,224.72l1.15,3.36c0.16,0.47,0.47,0.91,0.84,1.19l2.59,1.93c0.91,0.68,1.28,2.18,0.62,2.54
						l-1.88,1.02c-0.26,0.15-0.38,0.49-0.33,0.94l0.44,3.21c0.16,1.13-0.8,1.37-1.62,0.41l-2.32-2.74c-0.33-0.38-0.71-0.61-1.04-0.6
						l-2.32,0.06c-0.82,0.02-1.77-1.32-1.62-2.28l0.44-2.71c0.06-0.38-0.06-0.87-0.33-1.31l-1.88-3.18
						c-0.66-1.12-0.29-2.19,0.62-1.83l2.59,1.06c0.37,0.15,0.67,0.07,0.84-0.21l1.15-2.03C79.71,222.85,80.89,223.53,81.3,224.72z"
						/>
				</g>
			</g>
			<g>
				<g>
					<path class="st2" d="M96.49,233.87l1.15,3.36c0.16,0.47,0.47,0.91,0.84,1.19l2.59,1.93c0.91,0.68,1.28,2.18,0.62,2.54
						l-1.88,1.02c-0.26,0.15-0.38,0.49-0.33,0.94l0.44,3.21c0.16,1.13-0.8,1.37-1.62,0.41L96,245.73c-0.33-0.38-0.71-0.61-1.04-0.6
						l-2.32,0.06c-0.82,0.02-1.77-1.32-1.62-2.28l0.44-2.71c0.06-0.38-0.06-0.87-0.33-1.31l-1.88-3.18
						c-0.66-1.12-0.29-2.19,0.62-1.83l2.59,1.06c0.37,0.15,0.67,0.07,0.84-0.21l1.15-2.03C94.9,232.01,96.08,232.68,96.49,233.87z"
						/>
				</g>
			</g>
			<g>
				<g>
					<path class="st2" d="M111.69,243.03l1.15,3.36c0.16,0.47,0.47,0.91,0.84,1.19l2.59,1.93c0.91,0.68,1.28,2.18,0.62,2.54
						l-1.88,1.02c-0.26,0.15-0.38,0.49-0.33,0.94l0.44,3.21c0.16,1.13-0.8,1.37-1.62,0.41l-2.32-2.74c-0.33-0.38-0.71-0.61-1.04-0.6
						l-2.32,0.06c-0.82,0.02-1.77-1.32-1.62-2.28l0.44-2.71c0.06-0.38-0.06-0.87-0.33-1.31l-1.88-3.18
						c-0.66-1.12-0.29-2.19,0.62-1.83l2.59,1.06c0.37,0.15,0.67,0.07,0.84-0.21l1.15-2.03
						C110.09,241.16,111.28,241.85,111.69,243.03z"/>
				</g>
			</g>
			<g>
				<g>
					<path class="st2" d="M126.87,252.19l1.15,3.36c0.16,0.47,0.47,0.91,0.84,1.19l2.59,1.93c0.91,0.68,1.28,2.18,0.62,2.54
						l-1.88,1.02c-0.26,0.15-0.38,0.49-0.33,0.94l0.44,3.21c0.16,1.13-0.8,1.37-1.62,0.41l-2.32-2.74c-0.33-0.38-0.71-0.61-1.04-0.6
						l-2.32,0.06c-0.82,0.02-1.77-1.32-1.62-2.28l0.44-2.71c0.06-0.38-0.06-0.87-0.33-1.31l-1.88-3.18
						c-0.66-1.12-0.29-2.19,0.62-1.83l2.59,1.06c0.37,0.15,0.67,0.07,0.84-0.21l1.15-2.03
						C125.29,250.33,126.46,251.01,126.87,252.19z"/>
				</g>
			</g>
			<g>
				<g>
					<path class="st2" d="M142.07,261.35l1.15,3.36c0.16,0.47,0.47,0.91,0.84,1.19l2.59,1.93c0.91,0.68,1.28,2.18,0.62,2.54
						l-1.88,1.02c-0.26,0.15-0.38,0.49-0.33,0.94l0.44,3.21c0.16,1.13-0.8,1.37-1.62,0.41l-2.32-2.74c-0.33-0.38-0.71-0.61-1.04-0.6
						l-2.32,0.06c-0.82,0.02-1.77-1.32-1.62-2.28l0.44-2.71c0.06-0.38-0.06-0.87-0.33-1.31l-1.88-3.18
						c-0.66-1.12-0.29-2.19,0.62-1.83l2.59,1.06c0.37,0.15,0.67,0.07,0.84-0.21l1.15-2.03
						C140.47,259.48,141.66,260.16,142.07,261.35z"/>
				</g>
			</g>
		</g>
		<path class="st6" d="M140.28,303.58l-59.19-34.17c-1.31-0.76-2.38-2.79-2.38-4.54l0,0c0-1.75,1.07-2.56,2.38-1.79l59.19,34.17
			c1.31,0.76,2.38,2.79,2.38,4.54l0,0C142.66,303.53,141.6,304.33,140.28,303.58z"/>
		<path class="st6" d="M106.27,271.91l-25.19-14.55c-1.31-0.76-2.38-2.79-2.38-4.54l0,0c0-1.75,1.07-2.56,2.38-1.79l25.19,14.55
			c1.31,0.76,2.38,2.79,2.38,4.54l0,0C108.65,271.87,107.59,272.68,106.27,271.91z"/>
		<path class="st6" d="M139.95,291.36l-23.21-13.4c-1.31-0.76-2.38-2.79-2.38-4.54l0,0c0-1.75,1.07-2.56,2.38-1.79l23.21,13.4
			c1.31,0.76,2.38,2.79,2.38,4.54l0,0C142.33,291.32,141.27,292.12,139.95,291.36z"/>
	</g>
	<g>
		<g>
			<g class="st13">
				<path class="st11" d="M143.78,467.17L25.51,398.89c-9.35-5.4-16.94-19.89-16.94-32.37v-50.84c0-12.48,7.59-18.21,16.94-12.8
					l118.27,68.28c9.35,5.4,16.94,19.89,16.94,32.37v50.84C160.72,466.84,153.14,472.58,143.78,467.17z"/>
			</g>
		</g>
		<g>
			<g>
				
					<ellipse transform="matrix(0.7693 -0.6389 0.6389 0.7693 -218.4137 110.0413)" class="st6" cx="43.16" cy="357.45" rx="19.02" ry="30.93"/>
			</g>
			<g>
				<path class="st12" d="M31.83,362.73c0,0,1.9,5.33,1.21,11.62c5.51,5.37,13.44,9.67,21.56,9.98c0,0-0.19-8.45,1.31-9.13
					l-0.03-0.87l-3.59-2.83l-2.04,5.4c0,0-1.37,2.81-6.18-0.24c-4.81-3.05-5.64-4.04-5.94-6.05c-0.31-2-1.56-7.01-1.56-7.01
					L31.83,362.73z"/>
			</g>
			<g>
				<path class="st12" d="M47.76,370.71c-0.02,0-0.03,0-0.05,0c-0.21-0.03-0.4-0.22-0.41-0.43l-0.35-5.88
					c-0.01-0.21,0.15-0.35,0.37-0.33c0.21,0.03,0.4,0.22,0.41,0.43l0.35,5.88C48.08,370.58,47.94,370.71,47.76,370.71z"/>
			</g>
			<g>
				<path class="st12" d="M40.57,367.21c-0.03,0-0.06,0-0.1-0.01c-0.21-0.05-0.38-0.26-0.36-0.46l0.4-5.52
					c0.01-0.2,0.2-0.31,0.41-0.26s0.38,0.26,0.36,0.46l-0.4,5.52C40.88,367.1,40.74,367.21,40.57,367.21z"/>
			</g>
			<g>
				<path class="st12" d="M36.26,353.35c-0.08,0-0.17-0.03-0.25-0.08s-1.99-1.4-2.74-4.81c-0.3-1.37-0.19-2.18,0.35-2.49
					c0.49-0.28,1.18,0,1.5,0.21c0.19,0.13,0.27,0.36,0.18,0.52c-0.09,0.17-0.33,0.2-0.51,0.07c-0.12-0.07-0.49-0.25-0.68-0.15
					c-0.09,0.05-0.39,0.36-0.07,1.81c0.67,3.05,2.33,4.22,2.34,4.23c0.19,0.13,0.26,0.37,0.17,0.54
					C36.48,353.29,36.37,353.35,36.26,353.35z"/>
			</g>
			<g>
				<path class="st12" d="M61.61,382.78c-0.21,0-0.41-0.16-0.45-0.37c-0.69-3.04-2.49-5.59-5.49-7.82c-6.33-4.69-8.18-7.39-8.26-7.5
					c-0.13-0.19-0.09-0.41,0.08-0.5c0.17-0.08,0.42-0.01,0.55,0.18l0,0c0.02,0.03,1.87,2.7,8.02,7.26c3.2,2.37,5.11,5.11,5.86,8.36
					c0.05,0.21-0.08,0.38-0.29,0.39C61.62,382.78,61.61,382.78,61.61,382.78z"/>
			</g>
			<g>
				<path class="st12" d="M26.43,367.14c-0.04,0-0.07-0.01-0.12-0.02c-0.21-0.06-0.37-0.27-0.34-0.47c0.45-3.67,2.61-5.07,6.41-4.18
					c6.07,1.43,7.91,0.62,7.93,0.61c0.18-0.08,0.42,0,0.54,0.19c0.13,0.19,0.08,0.41-0.08,0.49c-0.07,0.04-2.02,0.96-8.42-0.57
					c-3.42-0.81-5.21,0.36-5.6,3.67C26.72,367.04,26.59,367.14,26.43,367.14z"/>
			</g>
			<g>
				<path class="st12" d="M33.11,374.04c-0.02,0-0.05,0-0.07-0.01c-0.21-0.04-0.39-0.24-0.39-0.44l0.02-4.81
					c0.01-2.8-1.2-5.96-1.21-6c-0.08-0.2,0.02-0.4,0.22-0.44c0.2-0.04,0.42,0.09,0.5,0.3c0.05,0.14,1.28,3.34,1.26,6.29l-0.02,4.81
					C33.42,373.93,33.29,374.04,33.11,374.04z"/>
			</g>
			<g>
				<path class="st12" d="M54.67,384.57c-0.02,0-0.05,0-0.07-0.01c-0.21-0.04-0.39-0.24-0.39-0.44l0.02-4.81
					c0.01-2.96,1.28-5,1.33-5.08c0.1-0.16,0.34-0.18,0.52-0.05c0.19,0.14,0.26,0.37,0.16,0.54c-0.01,0.02-1.23,1.97-1.24,4.74
					l-0.02,4.81C54.97,384.45,54.84,384.57,54.67,384.57z"/>
			</g>
			<g>
				<path class="st12" d="M48.35,378.51c-1.28,0-2.85-0.77-4.62-1.63c-3.93-1.92-5.96-4.44-6.24-7.7c-0.21-2.52-1.28-5.5-1.29-5.53
					c-0.07-0.21,0.03-0.4,0.23-0.43c0.2-0.03,0.42,0.1,0.49,0.31c0.04,0.13,1.12,3.12,1.34,5.73c0.24,2.93,2.11,5.2,5.7,6.95
					c2.3,1.12,3.78,1.78,4.82,1.46c0.63-0.2,1.1-0.79,1.45-1.81c0.97-2.82,1.67-4.57,1.67-4.58c0.07-0.18,0.29-0.24,0.49-0.13
					c0.2,0.1,0.3,0.34,0.23,0.51c-0.01,0.02-0.7,1.75-1.66,4.55c-0.41,1.21-1.01,1.91-1.84,2.17
					C48.89,378.47,48.63,378.51,48.35,378.51z"/>
			</g>
			<g>
				<path class="st12" d="M54.72,373.77c-0.18,0-0.36-0.13-0.43-0.29c-0.02-0.05-1.89-4.65-2.31-11.68
					c-0.25,0.47-0.51,0.91-0.72,1.18c-0.37,0.47-0.97,0.88-1.77,1.22c-2.99,1.24-7.62-1-10.54-5.09c-0.91-1.28-1.58-2.38-1.99-3.28
					c-1.19-2.57-1.98-5.99-2.12-9.16c-0.57-3.52,0.5-4.88,2.7-6.17c1.9-1.12,0.88-4.08,0.87-4.11c-0.06-0.19,0.02-0.38,0.2-0.42
					c0.18-0.05,0.4,0.05,0.5,0.23c0.01,0.02,1.46,2.53,4.19,5.15c0.28,0.27,0.61,0.58,0.97,0.91c3.3,3.06,8.82,8.21,8.49,14.69
					c-0.47,9.63,2.24,16.33,2.27,16.39c0.08,0.2-0.01,0.4-0.2,0.45C54.77,373.77,54.74,373.77,54.72,373.77z M39.45,337.98
					c0.05,1.08-0.18,2.4-1.44,3.15c-2.06,1.22-2.94,2.36-2.41,5.56c0,0.01,0,0.03,0,0.04c0.14,3.08,0.9,6.4,2.05,8.88
					c0.4,0.85,1.04,1.91,1.91,3.14c2.68,3.76,6.85,5.84,9.51,4.73c0.71-0.29,1.23-0.64,1.54-1.04c0.39-0.49,1.01-1.69,1.3-2.42
					c-0.02-1.05-0.01-2.14,0.04-3.27c0.3-6.1-5.02-11.05-8.2-14.01c-0.36-0.34-0.69-0.64-0.99-0.92
					C41.3,340.36,40.18,338.99,39.45,337.98z"/>
			</g>
			<g>
				<path class="st12" d="M59.21,377.82c-0.18,0-0.36-0.12-0.43-0.29c-0.2-0.47-4.89-11.67-3.82-18.85c0.03-0.2,0.22-0.3,0.44-0.23
					c0.21,0.06,0.36,0.28,0.34,0.48c-1.04,6.99,3.72,18.33,3.77,18.44c0.08,0.2,0,0.41-0.2,0.45
					C59.27,377.82,59.24,377.82,59.21,377.82z"/>
			</g>
			<g>
				<path class="st12" d="M55.66,356.63c-0.03,0-0.06,0-0.09-0.01c-0.21-0.05-0.38-0.25-0.37-0.45c0.41-9.04-4.33-16.32-9.23-18.85
					c-5.23-2.7-6.9-1.08-6.92-1.06c-0.14,0.14-0.38,0.12-0.55-0.03c-0.17-0.16-0.2-0.39-0.07-0.52c0.07-0.08,1.97-2.04,7.79,0.98
					c5.16,2.67,10.17,10.29,9.75,19.68C55.97,356.51,55.84,356.63,55.66,356.63z"/>
			</g>
			<g>
				<path class="st12" d="M34.21,346.15L34.21,346.15c-0.21,0-0.42-0.17-0.45-0.38c-2.07-10.69,2.12-11,2.59-10.99
					c1.44,0,2.61,1.24,2.67,1.29c0.16,0.17,0.17,0.4,0.02,0.52c-0.15,0.13-0.39,0.08-0.55-0.08l0,0c-0.01-0.01-0.94-0.99-1.99-0.99
					l0,0c-0.17,0-3.94,0.13-1.97,10.23C34.56,345.98,34.42,346.15,34.21,346.15z"/>
			</g>
			<g>
				<path class="st12" d="M34.44,363.64c-0.08,0-0.17-0.02-0.25-0.07c-0.19-0.13-0.27-0.37-0.18-0.52
					c1.86-3.19,1.44-10.21,1.44-10.29c-0.01-0.21,0.15-0.35,0.37-0.33c0.21,0.03,0.4,0.22,0.41,0.42c0.02,0.29,0.43,7.29-1.51,10.65
					C34.66,363.59,34.56,363.64,34.44,363.64z"/>
			</g>
			<g>
				<path class="st12" d="M52.12,354.13c-0.16,0-0.33-0.09-0.41-0.25c-0.01-0.03-1.58-2.8-4.51-5.31c-0.18-0.15-0.22-0.39-0.09-0.54
					s0.37-0.14,0.54,0.01c3.08,2.62,4.67,5.46,4.74,5.58c0.1,0.2,0.05,0.41-0.14,0.48C52.2,354.13,52.16,354.13,52.12,354.13z"/>
			</g>
			<g>
				<path class="st12" d="M45.67,347.26c-0.08,0-0.18-0.03-0.26-0.09c-0.34-0.24-0.69-0.49-1.06-0.76
					c-5.11-3.48-5.36-8.99-5.36-9.24c-0.01-0.21,0.16-0.35,0.38-0.31c0.21,0.03,0.39,0.23,0.4,0.43c0,0.05,0.25,5.32,4.95,8.52
					c0.39,0.26,0.75,0.51,1.09,0.78c0.19,0.14,0.25,0.38,0.15,0.54C45.87,347.22,45.78,347.26,45.67,347.26z"/>
			</g>
			<g>
				<path class="st12" d="M28.06,363.67c-0.03,0-0.06,0-0.09-0.01c-0.21-0.05-0.38-0.25-0.37-0.45c0.08-1.77,1.53-2.8,2.81-3.7
					c0.68-0.48,1.33-0.94,1.73-1.47c1.15-1.5,1.65-7.87,1.66-7.93c0.01-0.2,0.2-0.33,0.41-0.26c0.21,0.05,0.38,0.26,0.36,0.46
					c-0.02,0.27-0.51,6.62-1.77,8.26c-0.46,0.6-1.13,1.07-1.86,1.58c-1.23,0.87-2.5,1.76-2.57,3.24
					C28.37,363.56,28.24,363.67,28.06,363.67z"/>
			</g>
			<g>
				<path class="st12" d="M48.08,380.12c-0.02,0-0.05,0-0.07-0.01c-4.95-0.9-7.9-3.81-8.03-3.94c-0.16-0.17-0.18-0.4-0.04-0.52
					c0.14-0.13,0.38-0.1,0.55,0.06c0.03,0.03,2.87,2.81,7.51,3.66c0.21,0.04,0.39,0.24,0.39,0.44
					C48.39,379.99,48.25,380.12,48.08,380.12z"/>
			</g>
		</g>
		<g>
			<g>
				<g>
					<path class="st2" d="M80.61,354.78l1.13,3.27c0.16,0.46,0.46,0.89,0.82,1.15l2.53,1.88c0.89,0.66,1.25,2.12,0.6,2.48
						l-1.83,0.99c-0.25,0.14-0.38,0.48-0.31,0.92l0.43,3.14c0.15,1.1-0.78,1.34-1.57,0.4l-2.26-2.67c-0.31-0.38-0.69-0.59-1.01-0.59
						l-2.26,0.06c-0.8,0.02-1.73-1.29-1.57-2.22l0.43-2.63c0.06-0.37-0.05-0.85-0.31-1.28l-1.83-3.1c-0.64-1.09-0.29-2.14,0.6-1.77
						l2.53,1.04c0.36,0.15,0.66,0.06,0.82-0.21l1.13-1.97C79.07,352.97,80.21,353.63,80.61,354.78z"/>
				</g>
				<g>
					<path class="st2" d="M95.42,363.71l1.13,3.27c0.16,0.46,0.46,0.89,0.82,1.15l2.53,1.88c0.89,0.66,1.25,2.12,0.6,2.48
						l-1.83,0.99c-0.25,0.14-0.37,0.48-0.31,0.92l0.43,3.14c0.15,1.1-0.78,1.34-1.57,0.4l-2.26-2.67c-0.31-0.38-0.69-0.59-1.01-0.59
						l-2.26,0.06c-0.8,0.02-1.73-1.29-1.57-2.22l0.43-2.63c0.06-0.37-0.05-0.85-0.31-1.28l-1.83-3.1c-0.64-1.09-0.28-2.14,0.6-1.77
						l2.53,1.04c0.36,0.15,0.66,0.06,0.82-0.21l1.13-1.97C93.88,361.89,95.02,362.56,95.42,363.71z"/>
				</g>
				<g>
					<path class="st2" d="M110.23,372.63l1.13,3.27c0.16,0.46,0.46,0.89,0.82,1.15l2.53,1.88c0.89,0.66,1.25,2.12,0.6,2.47
						l-1.83,0.99c-0.25,0.14-0.38,0.48-0.31,0.92l0.43,3.14c0.15,1.1-0.78,1.34-1.57,0.4l-2.26-2.67c-0.31-0.38-0.69-0.59-1.01-0.59
						l-2.26,0.06c-0.8,0.02-1.73-1.29-1.57-2.22l0.43-2.63c0.06-0.37-0.05-0.85-0.31-1.28l-1.83-3.1c-0.64-1.09-0.29-2.14,0.6-1.77
						l2.53,1.04c0.36,0.15,0.66,0.06,0.82-0.21l1.13-1.97C108.67,370.82,109.83,371.48,110.23,372.63z"/>
				</g>
				<g>
					<path class="st2" d="M125.03,381.56l1.13,3.27c0.16,0.46,0.46,0.89,0.82,1.15l2.53,1.88c0.89,0.66,1.25,2.12,0.6,2.48
						l-1.83,0.99c-0.25,0.14-0.38,0.48-0.31,0.92l0.43,3.14c0.15,1.1-0.78,1.34-1.57,0.4l-2.26-2.67c-0.31-0.38-0.69-0.59-1.01-0.59
						l-2.26,0.06c-0.8,0.02-1.73-1.29-1.57-2.22l0.43-2.63c0.06-0.37-0.05-0.85-0.31-1.28l-1.83-3.1c-0.64-1.09-0.29-2.14,0.6-1.77
						l2.53,1.04c0.36,0.15,0.66,0.06,0.82-0.21l1.13-1.97C123.48,379.74,124.64,380.4,125.03,381.56z"/>
				</g>
				<g>
					<path class="st2" d="M139.83,390.49l1.13,3.27c0.16,0.46,0.46,0.89,0.82,1.15l2.53,1.88c0.89,0.66,1.25,2.12,0.6,2.48
						l-1.83,0.99c-0.25,0.14-0.37,0.48-0.31,0.92l0.43,3.14c0.15,1.1-0.78,1.34-1.57,0.4l-2.26-2.67c-0.31-0.38-0.69-0.59-1.01-0.59
						l-2.26,0.06c-0.8,0.02-1.73-1.29-1.57-2.22l0.43-2.63c0.06-0.37-0.05-0.85-0.31-1.28l-1.83-3.1c-0.64-1.09-0.28-2.14,0.6-1.77
						l2.53,1.04c0.36,0.15,0.66,0.06,0.82-0.21l1.13-1.97C138.29,388.67,139.43,389.33,139.83,390.49z"/>
				</g>
			</g>
		</g>
		<path class="st6" d="M133.13,430.9l-57.69-33.31c-1.28-0.73-2.32-2.73-2.32-4.43l0,0c0-1.71,1.04-2.5,2.32-1.75l57.69,33.31
			c1.28,0.73,2.32,2.73,2.32,4.43l0,0C135.45,430.86,134.41,431.64,133.13,430.9z"/>
		<path class="st6" d="M99.98,400.05l-24.55-14.17c-1.28-0.73-2.32-2.73-2.32-4.43l0,0c0-1.71,1.04-2.5,2.32-1.75l24.55,14.17
			c1.28,0.73,2.32,2.73,2.32,4.43l0,0C102.3,400.01,101.27,400.79,99.98,400.05z"/>
		<path class="st6" d="M132.81,419l-22.63-13.07c-1.28-0.73-2.32-2.73-2.32-4.43l0,0c0-1.71,1.04-2.5,2.32-1.75l22.63,13.07
			c1.28,0.73,2.32,2.73,2.32,4.43l0,0C135.13,418.96,134.09,419.74,132.81,419z"/>
	</g>
	<path class="st10" d="M35.51,175.21c-0.66,10.97-9.13,17.01-18.92,13.51s-17.2-15.23-16.55-26.2c0.66-10.97,9.13-17.01,18.92-13.51
		C28.76,152.52,36.16,164.25,35.51,175.21z"/>
	<g>
		<path class="st6" d="M2.83,161.07c3.17,6.53,6.35,13.05,9.52,19.57c1.46,3,5.14,4.06,7.58,1.4c3.18-3.47,6.37-6.94,9.55-10.41
			c3.88-4.24-2.89-10.04-6.76-5.81c-3.18,3.47-6.37,6.94-9.55,10.41c2.53,0.47,5.05,0.93,7.58,1.4c-3.17-6.53-6.35-13.05-9.52-19.57
			C8.75,152.95,0.32,155.89,2.83,161.07L2.83,161.07z"/>
	</g>
</g>
</svg>
