<svg xmlns="http://www.w3.org/2000/svg" width="113" height="45" viewBox="0 0 113 45">
    <g fill="none">
        <path fill="#14B7CC" d="M14.922 44.843C7.497 44.853 1.21 39.37.207 32.014c-1.003-7.356 3.588-14.32 10.744-16.299.597-7.791 6.427-14.173 14.133-15.47 7.706-1.298 15.304 2.824 18.42 9.99 3.657-2 8.064-2.076 11.788-.2 3.723 1.875 6.286 5.462 6.855 9.592 3.576.491 6.774 2.48 8.796 5.47.356.808.08 1.755-.655 2.244-.734.49-1.715.38-2.323-.259-1.68-2.487-4.485-3.975-7.486-3.97h-1.816v-1.818c.009-3.527-2.038-6.736-5.24-8.215-3.202-1.48-6.972-.957-9.652 1.336l-2.194 1.866-.734-2.78c-1.738-6.479-8.008-10.667-14.658-9.793-6.651.874-11.625 6.54-11.63 13.248v1.718l-1.54.258c-5.733.976-9.765 6.18-9.279 11.976.487 5.796 5.33 10.255 11.146 10.261 1.004 0 1.817.814 1.817 1.817 0 1.003-.813 1.817-1.817 1.817l.04.04z"/>
        <path fill="#002B49" d="M35.005 32.532c-1.402.001-2.737.605-3.663 1.658-.857-.975-2.069-1.569-3.365-1.648h-.308c-1.82.01-3.49 1.016-4.348 2.621-.35.653-.532 1.384-.527 2.125v7.445h2.453V37.07c-.001-.612.29-1.187.784-1.548.737-.617 1.764-.755 2.637-.354.874.401 1.44 1.269 1.453 2.23v7.336h2.452V37.07c0-.612.29-1.187.784-1.548.738-.617 1.764-.755 2.638-.354.874.401 1.439 1.269 1.452 2.23v7.336H39.9v-7.445c.01-.63-.12-1.253-.378-1.827-.8-1.779-2.566-2.925-4.517-2.929zM52.756 34.448c-1.144-1.147-2.699-1.79-4.319-1.787-2.047.005-3.957 1.031-5.09 2.736-1.132 1.705-1.338 3.864-.549 5.752.62 1.468 1.789 2.636 3.257 3.257 1.768.74 3.78.612 5.44-.348v-2.055c-.1-.165-.264-.28-.453-.318-.189-.038-.385.006-.54.12-.18.143-.38.256-.596.337-1.465.608-3.155.215-4.202-.977-1.047-1.193-1.217-2.92-.424-4.294.288-.546.735-.993 1.28-1.28 1.142-.657 2.545-.659 3.687-.005s1.852 1.865 1.863 3.18v5.957h2.452v-5.956c.004-1.62-.639-3.175-1.787-4.319h-.02zM67.974 32.661h-2.491v7.049c0 .873-.445 1.686-1.182 2.154-.939.71-2.199.825-3.251.299-1.053-.527-1.716-1.604-1.712-2.78V32.66h-2.453v6.721c0 .737.15 1.467.437 2.145.278.65.675 1.243 1.172 1.747.502.503 1.1.902 1.757 1.171 1.367.583 2.912.583 4.279 0 .654-.27 1.249-.668 1.747-1.171 1.038-1.028 1.617-2.43 1.608-3.892l.09-6.72zM82.627 32.532c-1.402.001-2.736.605-3.663 1.658-.855-.973-2.062-1.566-3.355-1.648h-.318c-1.82.01-3.489 1.016-4.348 2.621-.34.656-.51 1.386-.497 2.125v7.445H72.9V37.07c-.001-.612.29-1.187.784-1.548.737-.617 1.764-.755 2.637-.354.874.401 1.44 1.269 1.453 2.23v7.336h2.462V37.07c-.005-.61.283-1.186.774-1.548.738-.617 1.764-.755 2.638-.354.874.401 1.439 1.269 1.452 2.23v7.336h2.462v-7.445c.01-.623-.118-1.24-.377-1.807-.8-1.8-2.587-2.957-4.557-2.949zM91.97 42.678c-.503-.383-1.21-.335-1.657.111-.446.447-.494 1.154-.11 1.656.052.073.115.136.188.189.502.383 1.21.335 1.656-.11.446-.447.494-1.155.11-1.657-.052-.072-.115-.136-.188-.189zM110.97 32.552L108.27 32.552 108.27 44.763 110.97 44.763zM104.051 34.448c-1.144-1.147-2.698-1.79-4.318-1.787-1.624-.006-3.183.637-4.329 1.787-.561.57-1.006 1.245-1.31 1.986-.635 1.521-.635 3.234 0 4.755.62 1.468 1.788 2.636 3.256 3.256.754.318 1.564.48 2.383.477 1.073-.002 2.128-.287 3.057-.824v-2.055c-.1-.165-.263-.28-.452-.318-.19-.038-.385.005-.54.12-.18.144-.38.258-.596.337-1.466.608-3.156.215-4.203-.978-1.046-1.192-1.217-2.92-.423-4.294.288-.546.734-.992 1.28-1.28 1.141-.657 2.544-.658 3.687-.004 1.142.654 1.851 1.865 1.863 3.18v5.957h2.452v-5.956c.002-.815-.16-1.622-.477-2.373-.31-.742-.761-1.417-1.33-1.986z"/>
        <circle cx="109.64" cy="27.41" r="3.048" fill="#14B7CC"/>
    </g>
</svg>
